<?xml version="1.0" encoding="UTF-8" standalone="no"?>
<!-- Created with Inkscape (http://www.inkscape.org/) -->

<svg
   xmlns:dc="http://purl.org/dc/elements/1.1/"
   xmlns:cc="http://creativecommons.org/ns#"
   xmlns:rdf="http://www.w3.org/1999/02/22-rdf-syntax-ns#"
   xmlns:svg="http://www.w3.org/2000/svg"
   xmlns="http://www.w3.org/2000/svg"
   xmlns:sodipodi="http://sodipodi.sourceforge.net/DTD/sodipodi-0.dtd"
   xmlns:inkscape="http://www.inkscape.org/namespaces/inkscape"
   version="1.1"
   id="svg2"
   width="746.66669"
   height="746.66669"
   viewBox="0 0 746.66669 746.66669"
   sodipodi:docname="github.svg"
   inkscape:version="0.92.3 (2405546, 2018-03-11)">
  <metadata
     id="metadata8">
    <rdf:RDF>
      <cc:Work
         rdf:about="">
        <dc:format>image/svg+xml</dc:format>
        <dc:type
           rdf:resource="http://purl.org/dc/dcmitype/StillImage" />
        <dc:title />
      </cc:Work>
    </rdf:RDF>
  </metadata>
  <defs
     id="defs6" />
  <sodipodi:namedview
     pagecolor="#ffffff"
     bordercolor="#666666"
     borderopacity="1"
     objecttolerance="10"
     gridtolerance="10"
     guidetolerance="10"
     inkscape:pageopacity="0"
     inkscape:pageshadow="2"
     inkscape:window-width="3840"
     inkscape:window-height="2107"
     id="namedview4"
     showgrid="false"
     inkscape:zoom="1.78797"
     inkscape:cx="134.10645"
     inkscape:cy="217.67966"
     inkscape:window-x="0"
     inkscape:window-y="0"
     inkscape:window-maximized="1"
     inkscape:current-layer="svg2" />
  <path
     style="fill:#101010;stroke-width:1.33333337;fill-opacity:1"
     d="m 268.00001,636.85313 c -7.7,-3.14786 -18.4501,-7.98552 -23.8891,-10.75035 C 162.5609,584.64804 105.94142,504.99806 93.940048,414.84849 c -2.232445,-16.76926 -2.51747,-53.59772 -0.538266,-69.55012 6.022541,-48.54177 24.834838,-95.13966 54.242968,-134.35932 10.39179,-13.85884 34.39488,-38.47758 48.3071,-49.54612 37.77308,-30.0522 80.16611,-49.03796 130.04816,-58.24223 19.18247,-3.53956 74.15087,-3.53956 93.33334,0 49.88205,9.20427 92.27508,28.19003 130.04816,58.24223 13.91221,11.06854 37.91531,35.68728 48.3071,49.54612 29.40812,39.21966 48.22042,85.81755 54.24297,134.35932 1.9792,15.9524 1.69417,52.78086 -0.53827,69.55012 -13.33444,100.16299 -80.88535,185.56205 -176.38439,222.98824 -18.82776,7.37862 -29.03285,6.19084 -32.3174,-3.76146 -0.93333,-2.828 -1.39879,-20.57242 -1.31744,-50.22412 0.10307,-37.57261 -0.24835,-47.23941 -1.94637,-53.5402 -2.57972,-9.57255 -7.54743,-19.5026 -12.68224,-25.35083 l -3.92618,-4.47166 12.25703,-1.71882 c 42.75393,-5.99541 74.35274,-22.27608 92.4454,-47.63067 15.5015,-21.7234 23.13836,-49.83354 23.13026,-85.13896 -0.007,-27.95327 -6.38384,-48.36585 -21.20984,-67.88753 l -7.00291,-9.22087 2.25827,-8.0484 c 4.69618,-16.7371 3.96948,-36.43596 -2.0649,-55.97299 l -2.73973,-8.87021 h -7.66629 c -14.68788,0 -33.80247,6.97086 -56.19945,20.49525 l -12.63953,7.63239 -16.6938,-3.34888 c -36.21564,-7.2651 -71.89719,-7.26647 -108.05424,-0.004 l -16.6938,3.35302 -12.63954,-7.63238 c -22.39697,-13.52454 -41.51156,-20.4954 -56.19944,-20.4954 h -7.66629 l -2.73974,8.87021 c -6.03437,19.53703 -6.76108,39.23589 -2.06489,55.97299 l 2.25827,8.0484 -7.00291,9.22087 c -14.84365,19.54493 -21.21629,39.96245 -21.1888,67.88753 0.0283,28.75343 4.135,49.19215 13.93089,69.33334 16.98172,34.91585 48.64578,55.25647 98.03337,62.97547 7.7,1.20346 14.18784,2.31414 14.41741,2.46818 0.22959,0.15404 -1.91752,3.36504 -4.77132,7.13558 -4.7074,6.21954 -9.44697,17.33237 -11.59016,27.1753 -0.98877,4.5411 -5.99883,6.9153 -20.59391,9.75922 -25.70129,5.00802 -44.30252,-3.3119 -61.43801,-27.47988 -10.48604,-14.78958 -17.2576,-20.97114 -28.7224,-26.2199 -9.23586,-4.22832 -22.0269,-4.99345 -25.49527,-1.52508 -3.02413,3.02412 -0.60087,6.61947 8.73425,12.95883 12.23155,8.30629 20.4084,18.54257 29.4862,36.91261 6.471,13.09486 9.45748,17.59372 14.96842,22.54852 14.23884,12.80194 27.89402,17.2755 52.33812,17.14643 9.53333,-0.0504 19.83299,-0.71328 22.88813,-1.4732 5.12212,-1.27407 5.61402,-1.16101 6.31512,1.45145 1.37491,5.12315 0.84663,50.95878 -0.63634,55.21286 -3.52386,10.10851 -14.04848,10.86159 -34.56691,2.47339 z m 0.14025,-80.01745 c -3.47005,-4.18116 4.12039,-9.66985 9.06612,-6.55576 2.8124,1.77084 3.51203,5.77823 1.25815,7.20658 -2.77229,1.75688 -8.63265,1.38745 -10.32427,-0.65082 z m -21.44335,-3.47209 c -5.01481,-5.01481 1.18883,-10.15907 7.36838,-6.11008 3.58541,2.34925 4.1304,4.68416 1.66805,7.14651 -2.36859,2.36858 -6.05412,1.94588 -9.03643,-1.03643 z m 43.52533,1.74753 c -1.82854,-1.82852 -0.79335,-5.73508 1.90196,-7.17757 6.04529,-3.23533 12.1354,1.94021 7.60914,6.46647 -1.7112,1.7112 -8.038,2.18422 -9.5111,0.7111 z m -61.98982,-12.8637 c -3.36615,-3.58311 -3.61469,-5.32698 -1.06127,-7.44614 2.82772,-2.3468 8.58158,0.4159 9.63875,4.62802 0.58969,2.34954 0.26891,3.91338 -0.96276,4.69341 -2.90005,1.83663 -4.49701,1.44335 -7.61472,-1.87529 z m -11.69948,-13.93448 c -0.80688,-0.53878 -2.15569,-2.28792 -2.99735,-3.88699 -1.22537,-2.32808 -1.11385,-3.32385 0.55966,-4.99736 2.69478,-2.69479 6.87364,-0.67827 8.01454,3.86747 1.2734,5.07364 -1.60878,7.66642 -5.57685,5.01688 z M 203.30258,510.1402 c -2.45815,-3.75161 -1.70108,-6.14018 1.94619,-6.14018 3.11785,0 5.7676,3.19952 5.17936,6.25397 -0.71043,3.68897 -4.67536,3.62565 -7.12555,-0.11373 z m -10.96924,-9.68989 c -0.91667,-0.36988 -1.66667,-1.86237 -1.66667,-3.31664 0,-4.01408 7.17651,-2.90452 7.7594,1.19968 0.42507,2.99289 -1.91066,3.80447 -6.09273,2.11696 z"
     id="path817"
     inkscape:connector-curvature="0" />
</svg>
