<?xml version="1.0" encoding="UTF-8" standalone="no"?>
<!-- Created with Inkscape (http://www.inkscape.org/) -->

<svg
   xmlns:dc="http://purl.org/dc/elements/1.1/"
   xmlns:cc="http://creativecommons.org/ns#"
   xmlns:rdf="http://www.w3.org/1999/02/22-rdf-syntax-ns#"
   xmlns:svg="http://www.w3.org/2000/svg"
   xmlns="http://www.w3.org/2000/svg"
   xmlns:sodipodi="http://sodipodi.sourceforge.net/DTD/sodipodi-0.dtd"
   xmlns:inkscape="http://www.inkscape.org/namespaces/inkscape"
   version="1.1"
   id="svg2"
   width="915.04211"
   height="915.04211"
   viewBox="0 0 915.04211 915.0421"
   sodipodi:docname="stash.svg"
   inkscape:version="0.92.3 (2405546, 2018-03-11)">
  <metadata
     id="metadata8">
    <rdf:RDF>
      <cc:Work
         rdf:about="">
        <dc:format>image/svg+xml</dc:format>
        <dc:type
           rdf:resource="http://purl.org/dc/dcmitype/StillImage" />
        <dc:title />
      </cc:Work>
    </rdf:RDF>
  </metadata>
  <defs
     id="defs6" />
  <sodipodi:namedview
     pagecolor="#ffffff"
     bordercolor="#666666"
     borderopacity="1"
     objecttolerance="10"
     gridtolerance="10"
     guidetolerance="10"
     inkscape:pageopacity="0"
     inkscape:pageshadow="2"
     inkscape:window-width="3840"
     inkscape:window-height="2107"
     id="namedview4"
     showgrid="false"
     fit-margin-top="11"
     fit-margin-left="40"
     fit-margin-right="40"
     fit-margin-bottom="11"
     inkscape:zoom="1.5733333"
     inkscape:cx="472.75687"
     inkscape:cy="304.80561"
     inkscape:window-x="0"
     inkscape:window-y="0"
     inkscape:window-maximized="1"
     inkscape:current-layer="svg2" />
  <path
     style="fill:#101010;fill-opacity:1"
     d="m 620,783.30948 c -80.87995,-6.50189 -162.25724,-3.98981 -243.324,-6.44032 -19.50118,-3.83447 -65.84814,-2.6028 -72.06357,-3.67608 23.69912,6.7029 -27.5099,3.42356 -34.44465,4.44585 -33.79397,-0.50678 -67.78395,1.43723 -101.45404,-1.38558 -12.72365,-7.59009 -67.44933,-7.68299 -24.56732,-8.57869 32.74997,1.54896 65.3842,-6.76647 98.16765,-9.67016 -31.43315,0.17217 -63.62589,6.48502 -94.17905,4.19061 -1.33153,-13.22999 29.61957,-31.65063 6.37399,-29.96744 10.97974,-6.29488 63.25184,-10.16976 54.3784,-12.37315 -11.92501,-3.84096 -49.26822,11.58288 -47.1284,3.09707 C 177.6695,703.83477 116.60773,712.15714 142.99419,692.08237 165.45175,681.19018 94.519099,687.24595 130,674.17169 c 20.66363,-9.28534 12.7364,7.12176 37.54261,-3.36767 14.50425,-3.44604 68.59908,-11.55081 25.28541,-0.86129 -13.10841,0.91921 -71.76966,15.69822 -28.60798,8.63423 43.21193,-6.31677 84.45339,-21.92087 126.71161,-32.23328 -16.4409,9.85408 -65.01519,28.50957 -59.63434,23.77214 106.37496,-24.6111 205.08829,-74.21665 299.03851,-128.61485 17.74817,-15.39021 57.11437,-34.08794 65.64144,-41.30052 -17.8411,-1.07927 -51.13992,24.25609 -58.35986,14.81411 23.5795,-18.97734 -19.92281,-3.14657 -9.98194,-13.61948 -24.34951,17.57674 -51.24126,38.80554 -76.97754,49.78248 8.01787,-14.69205 54.93109,-35.87702 34.43488,-47.14817 -33.95081,19.12267 -63.18605,45.88599 -96.95728,65.14198 29.33432,-27.25605 64.14045,-48.30633 94.31153,-74.54837 -16.22228,1.29732 -45.22599,32.84348 -65.03571,45.32319 -61.34949,47.83016 -129.71602,90.65208 -207.11178,105.74664 -54.66154,15.02222 -111.099159,25.96374 -167.850323,26.44053 17.779704,-10.50993 -15.197293,-9.75181 10.879013,-15.15943 102.17978,-13.17622 203.92977,-46.72885 286.28079,-110.00896 25.98396,-16.51813 50.91313,-35.9659 78.18007,-51.31946 22.00158,-17.317 57.5448,-25.30202 67.79419,-52.23532 -46.24592,19.82707 -89.51446,47.77417 -134.39885,71.1926 -80.03441,41.44929 -158.62767,88.56266 -246.14318,112.6167 -13.170572,6.13579 -67.989329,7.13354 -28.650531,-5.32398 12.656433,-2.60346 54.590051,-14.68658 19.734863,-6.81814 -13.059333,4.4639 -54.18866,11.26734 -17.758686,1.79702 86.288514,-17.75066 165.089184,-58.36065 244.936184,-93.6567 53.252,-29.12005 107.55663,-56.29167 161.05319,-84.90287 15.14652,-22.28223 44.85525,0.70815 61.39442,-25.79976 24.57952,-16.14476 48.65604,-36.21787 75.99929,-39.23604 16.09851,-12.96018 45.26606,2.82198 22.56445,19.63516 -12.67205,9.7883 -33.17298,43.96115 -3.41364,21.72778 9.00883,9.38973 -56.2997,54.19604 -12.9686,26.91756 18.32014,-3.9948 39.01682,-17.51077 51.6927,-21.29595 4.06906,20.27767 42.67803,-6.36497 19.76514,-19.06255 2.00354,-16.24847 27.82371,17.91306 4.54965,21.88789 -11.40155,7.74725 -30.71947,25.78106 -6.84443,9.41309 16.80841,-12.48453 19.46782,-5.80674 2.1961,5.95529 -17.46397,21.79027 -68.93509,36.08996 -72.81205,54.8333 31.35451,-17.15488 67.30708,-27.56196 97.92616,-48.1327 17.06523,-19.78274 27.91971,5.09287 16.61223,10.93921 -26.16342,-3.91831 -52.96215,30.49928 -77.7644,44.05264 1.971,2.77984 21.21038,-6.23375 11.96441,5.24753 22.00574,-9.42399 45.96989,-36.14453 63.28807,-41.13137 -1.45939,12.83721 -41.34076,29.51324 -42.15612,39.50042 27.83932,-17.72062 3.38258,2.94761 -5.26924,11.87257 11.33552,-4.32767 32.41146,-21.65164 13.8813,-2.06739 30.31172,-2.92943 -21.80266,36.29674 7.48268,16.56855 17.20417,-4.70265 38.02165,-16.21769 62.65714,-28.10686 -2.33603,10.25704 -35.58124,34.75437 -6.61178,17.80868 24.71137,-19.77549 29.46536,2.14658 32.01023,3.541 14.25893,-3.94122 34.15202,-7.55239 9.45805,4.44421 -15.33882,9.75946 -43.63293,20.8896 -52.7629,23.86533 22.15928,7.03934 53.69632,-26.38473 65.40193,-10.15165 -26.2234,12.49721 -63.10592,7.36448 -87.85203,28.9942 -14.14385,3.88697 -47.21521,12.95918 -12.98041,7.57557 30.00755,-14.98236 63.82097,-17.64502 95.24737,-5.87462 13.70769,10.75683 21.63169,26.3054 3.67046,19.98403 17.54017,7.10834 -14.39164,20.90596 -14.03013,18.87311 14.93249,-10.73707 45.02103,1.77518 21.62925,13.32706 -16.95896,3.10808 -62.62385,12.72335 -56.78159,8.91431 14.97034,1.86908 69.37075,-14.34629 54.89472,11.6298 -18.41129,0.37161 -39.077,-2.61339 -9.49394,4.1292 15.44435,2.4128 20.43989,7.60456 4.5161,8.55793 24.93789,-2.83575 -5.2386,25.74334 20.12031,23.08103 25.45743,-0.93722 -8.61752,11.87264 15.24896,11.62905 -1.9153,22.6118 -49.51591,8.37384 -65.91078,16.42725 12.37147,0.31583 74.43301,0.43239 35.25231,8.43483 -30.61638,3.74234 -83.55701,-5.02649 -101.42644,2.59735 32.19933,6.83024 67.46842,-2.09392 98.95887,5.68391 -13.54239,3.06125 -60.60367,0.53548 -56.21245,4.9782 12.78413,0.67259 40.55238,-0.11431 13.14713,1.86796 -17.80097,3.45423 -48.49979,6.85398 -58.48441,9.69474 34.89257,0.0549 69.80423,-2.21043 104.58171,-3.43026 -12.11331,11.58609 -56.43694,7.77888 -80.54769,12.89991 -14.11536,3.02817 -64.43451,-3.49993 -60.1444,1.67337 27.99598,8.8374 60.32371,1.54971 90.02917,3.84017 15.82685,0.38102 63.67884,-0.94783 22.66371,-1.48164 -11.84291,0.49332 -63.0039,-2.57122 -24.50671,-5.51999 17.78,3.67143 72.72522,-18.31247 59.19993,11.38341 -27.3548,4.03618 37.33469,6.24138 3.24308,13.31785 -43.25099,14.71066 -90.4878,7.0666 -135.69289,8.89383 -26.96084,-0.74771 -54.04973,1.51551 -80.93629,-0.31284 z m 25.00045,-2.33099 c 49.31495,-2.08649 98.95354,0.62602 148.16033,-1.54159 13.94585,-2.62141 59.32398,-11.34516 22.32771,-12.61543 -18.40462,3.98854 -36.26993,4.75226 -58.34722,4.59305 -27.73243,-1.03173 -51.69573,1.55376 -78.64127,0.0424 20.0111,-3.31929 35.00157,-6.96802 57.63652,-6.66055 28.18118,-2.50977 -27.01163,-1.89866 -36.11608,-1.95711 -25.84786,-1.93891 -11.56841,2.99292 -12.26289,3.56562 -21.22741,1.92236 -60.4835,0.96314 -69.20449,-1.59036 6.43937,-2.73534 -12.867,-4.59929 -12.37663,0.29858 -28.2864,-3.05165 -60.45575,-2.51083 -90.17641,-1.40026 18.06602,1.43232 31.83878,0.70333 58,3.99322 14.02229,1.41633 53.56661,4.44479 15.637,5.51086 -16.04489,-2.086 -41.30096,-2.20322 -62.13711,-4.106 -33.71059,2.58856 -70.0523,-0.0148 -102.17169,3.07256 -13.98856,2.30191 -28.01433,5.67876 -25.93367,3.07324 36.73641,0.90745 73.49844,-0.51363 110.23016,0.3659 8.86899,1.01843 50.34593,0.99154 70.73944,1.62922 16.39554,0.80949 32.92246,1.23392 47.63585,3.44216 5.28133,1.77095 11.58678,1.24661 17.00045,0.28444 z m 39.24955,-1.9983 c 14.88963,-0.47449 53.21544,0.3101 16.75,0.30005 0.33226,-0.24008 -25.22388,0.37003 -16.75,-0.30005 z m 51.5625,0.0652 c 5.59053,-0.8633 -1.71937,1.71436 0,0 z m 29.47401,-1.05697 c 15.42397,-0.86599 13.74034,1.07797 0,0 z M 790.5,776.14477 c 14.52946,-0.64707 31.13927,-7.70061 26,-8.185 33.06147,1.13202 -52.64612,13.71982 -26,8.185 z m -181.23625,-2.13386 c 10.9729,-1.41985 2.29851,1.47703 0,0 z M 617,772.72126 c -17.99464,-1.65488 27.30034,-2.25981 0,0 z m 19.5,0.0891 c -17.3973,-4.68618 23.75325,1.51809 0,0 z m 24.5,0.5251 c 3.76674,-3.23544 5.51289,1.73715 0,0 z m 10.76791,-0.33172 c 13.18493,-1.38785 2.7668,1.42819 0,0 z m 43.50112,-0.96826 c 6.59095,-1.4799 1.27974,1.65833 0,0 z M 676,769.72849 c 8.7769,-3.53961 -1.74222,3.40198 0,0 z m 19,-5 c 22.37731,-4.04632 9.92383,3.34966 0,0 z m -468,10 c 9.7989,-1.35594 42.64799,-0.54316 32.66132,0.66498 16.91269,1.66803 46.82979,-1.68064 24.01082,-1.52843 -15.3561,-6.19693 -44.70844,-4.73529 -65.67214,-3.63664 -10.24238,1.00402 -44.27691,5.16187 -15.33444,5.27056 2.86529,-0.14504 41.69697,0.33222 24.33444,-0.77047 z m -30,-1 c 12.82113,-2.9482 -5.15768,3.19865 0,0 z m -23.27083,-3.60417 c -3.68154,-1.13412 -1.83703,1.74158 0,0 z M 198.5,768.71953 c 13.01574,-1.24308 -21.16185,0.54554 0.17159,-2.65279 -21.6897,0.84886 -30.69353,5.49973 -0.17159,2.65279 z M 767,767.72849 c -11.26649,-1.95847 -59.048,0.37331 -48.39132,0.66154 16.12314,-0.061 32.29957,0.48017 48.39132,-0.66154 z m -553.73625,-0.70393 c -11.21616,-1.58351 -2.05171,1.57001 0,0 z m 105.4911,0.12544 c -30.16869,-4.58641 -48.54924,-9.93517 -80.48297,-6.14993 -15.04115,0.54635 30.65021,0.79782 5.72812,2.88676 24.87756,1.09814 49.89566,2.89442 74.75485,3.26317 z m 23.02158,-0.1484 c -9.79565,-0.92382 -11.45615,1.10339 0,0 z m -120.01477,-0.96019 c -8.96109,-1.6727 -1.61654,1.65996 0,0 z M 204.75,765.03916 c -7.74545,-1.55624 -1.48708,1.6085 0,0 z m 29.5,-0.0341 c -14.42992,-1.41954 -2.85946,1.43043 0,0 z m -22.5,-0.96593 c -7.74545,-1.55624 -1.48708,1.6085 0,0 z m 423.24164,-0.28434 c 2.1591,-8.54864 -10.70938,4.8793 0,0 z m -415.22998,-0.71341 c -8.96109,-1.6727 -1.61654,1.65996 0,0 z m 11.00625,-1.02745 c -13.45706,-1.51834 -2.49212,1.50525 0,0 z m 581.11422,-0.19146 c -10.50821,-4.26104 -36.26943,0.70446 -9.27823,0.50018 l 4.88742,0.18425 4.39081,-0.68438 z m -7.6131,-0.787 c 6.59095,-1.4799 1.27974,1.65833 0,0 z m -135.52951,-3.62206 c -10.00604,-10.81791 2.42284,10.50769 0,0 z M 600,758.77442 c -6.04437,-4.04077 -30.8535,0.69535 -5.19098,0.77391 -1.26738,-0.14513 17.70296,0.0799 5.19098,-0.77391 z m 65.45274,0.0305 c -10.66121,-14.44747 -44.0697,3.61122 -9.36374,0.47611 l 5.10198,0.24387 z m -62.18371,-2.73241 c -6.6643,-1.82411 -1.20257,1.81729 0,0 z M 261.5,753.73079 c 19.75206,-1.10424 80.52351,-3.43346 75.41274,-5.88444 -18.7871,-0.0801 -67.97511,7.13353 -69.90467,0.92032 22.61994,-4.03165 45.59463,-5.18901 68.49193,-6.53818 -37.62623,-2.71886 -74.93013,5.51059 -112.18157,9.54348 -4.02988,7.55334 23.5522,0.86649 33.00652,2.15689 z M 370,753.62195 c 17.86398,-0.13508 53.04313,-3.4296 14.91848,-2.2903 -20.99184,0.82678 -90.0477,2.53535 -83.1354,4.30342 22.74896,-0.22338 45.48595,-1.1336 68.21692,-2.01312 z m 218.16421,1.36632 c -24.05844,-4.72274 16.8144,3.13677 0,0 z m 86.67032,-0.13636 c -0.65622,-5.04362 -9.44135,3.90507 0,3e-5 z M 548.5,753.72849 c -18.50903,-3.69559 -13.42251,3.6226 0,0 z m 56.95729,-0.9309 c 0.008,-4.63535 -2.6903,3.26751 0,0 z M 795,752.72849 c -7.59398,-0.42646 9.0723,-3.90377 -8.68716,0.036 1.16077,0.92892 21.42865,1.19138 8.68716,-0.036 z m 28.28109,-0.5 c -12.40342,-1.60317 -23.03377,3.90671 0,-3e-5 z M 638,752.28751 c -1.73422,-3.55883 -5.03952,2.4395 0,0 z m -72,-1.33897 c -20.00341,-2.3471 23.05408,-4.13028 -3.35604,-4.89966 -52.53037,-1.06496 -105.30122,-2.19212 -157.68395,1.92613 30.89997,0.78761 59.43955,1.01316 86.06318,3.38399 24.99099,0.061 49.99154,0.10659 74.97681,-0.41046 z m 176.75,-0.23924 c 16.82187,-8.50833 -24.84434,2.99043 0,0 z M 627.5,748.72849 c -12.07043,-3.87328 -14.99868,3.47357 0,0 z m 43.5,0 c 7.23796,-4.18021 -6.36501,1.6851 0,0 z m 38,-0.74881 c -6.06146,-3.39837 -51.86608,1.62006 -12.70435,0.96448 4.23987,-0.20783 8.49936,-0.33128 12.70435,-0.96448 z m -534.125,0.12381 c 9.06929,-6.8144 -21.90795,2.83315 0,0 z m 216.07721,-2.46456 c 39.81201,-0.95165 -22.54705,-5.33098 -36.36251,0.0151 -20.68588,3.96888 35.5457,-0.45339 36.36251,-0.0151 z M 608.431,744.85231 c 20.96612,3.67582 2.60117,-14.60252 -6.66115,-4.18907 -12.97195,1.75187 -65.23565,-2.99467 -47.30356,3.63014 17.92876,0.21733 35.97051,0.18677 53.96471,0.55893 z M 787,744.72849 c -3.54894,-3.4795 -4.63518,3.88264 0,0 z m -110.5,-2.27484 c -4.77409,-4.15471 -39.89001,-5.61616 -30.25618,-9.08213 -0.75358,-12.99579 12.28445,-6.11414 21.75618,-4.71038 6.37507,-6.42579 -15.70084,-6.01217 -21.28933,-7.52244 2.04119,16.3184 -17.82312,2.30803 -28.7107,8.58979 -15.27107,6.1632 24.74421,3.34676 19.13039,9.44492 14.64878,-1.70565 25.88662,8.15945 39.36964,3.28024 z m -35.75,-6.38744 c 5.50683,-1.62308 0.99942,1.75023 0,0 z m -10.48097,-7.03071 c 6.59095,-1.4799 1.27974,1.65833 0,0 z M 680.5,743.72849 c -4.17789,-3.45953 -1.00177,3.52086 0,0 z m 28.5,0.051 c -3.89041,-3.35881 -34.62647,1.64653 -5.55569,0.63106 L 709,743.77945 Z m -330,-1.42445 c 10.77042,-0.97508 67.55795,-2.52895 29.50939,-3.52565 -22.12423,-0.48459 -49.84057,2.0901 -63.15627,3.07369 -1.41727,3.75426 21.99318,-1.21784 33.64688,0.45196 z m 155.5,0.3274 c -15.47403,-1.44566 -62.51329,-0.41667 -21.71302,0.56006 5.54514,-0.1566 19.56468,0.88117 21.71302,-0.56006 z m -217.77083,-2.55816 c -3.68154,-1.13412 -1.83703,1.74158 0,0 z m 378.73958,-1.56176 c -3.77304,-4.55563 -29.64172,-4.44805 -11.56395,0.68688 3.87946,-0.70617 7.95584,3.348 11.56395,-0.68688 z M 701,739.72849 c -8.15347,-3.29031 0.51202,3.69244 0,0 z m -510,-0.9581 c 0.14683,-0.0712 6.82445,-4.11962 4.64451,-3.68035 -9.93583,0.83515 -25.58156,6.65117 -4.64451,3.68035 z m 58.5,-1.56015 c 38.06889,-1.92074 75.36318,-10.66007 112.58009,-18.16985 -49.71823,4.77897 -99.70496,11.26763 -148.75635,20.7066 12.06368,-0.76516 24.10965,-1.80192 36.17626,-2.53675 z m -7.5,-1.4938 c 12.63304,-2.45726 76.99489,-9.14859 34.5,-2.65443 -9.66042,1.02565 -28.98627,4.27758 -34.5,2.65443 z m 106,1.97148 c 12.37232,-0.99085 40.44818,-2.39729 25.35387,-3.52791 12.96742,-3.18177 -37.81973,2.27194 -48.57676,5.19381 7.74867,-0.44428 15.48262,-1.10138 23.22289,-1.6659 z m 97.76791,1.32604 c -13.45706,-1.51834 -2.49212,1.50525 0,0 z m 148.98209,-0.027 c -17.92282,-0.83047 -17.83126,1.01573 0,0 z M 473.5,737.7745 c -17.25434,-1.79447 -59.52781,-0.23763 -21.4164,0.45585 7.13265,0.11786 14.32196,0.53301 21.4164,-0.45585 z m -254.09243,-2.75175 c 37.88886,-7.65131 -5.02949,-1.03687 -20.65757,-0.63198 -0.9771,6.28425 14.34312,0.37695 20.65757,0.63198 z m 388.91092,-1.25855 c -3.98143,-6.22844 -29.76854,0.15926 -40.63072,-2.1117 -14.80224,0.44711 -55.82023,4.85409 -50.68777,2.17034 8.31477,0.63992 29.28301,1.43884 17.31785,-0.94342 21.02851,1.89866 40.58712,3.31863 64.00461,3.4205 3.37621,-0.8358 8.85602,2.17282 9.99603,-2.53572 z M 716.25,734.20497 c 10.05678,-1.936 -30.22555,-6.71122 -28.51647,-13.38745 -8.04776,7.39191 -29.19336,-6.18878 -4.73353,5.91097 14.47024,1.41826 15.70453,12.4258 33.25,7.47648 z m 20.66667,1.15618 c -12.31932,-3.64591 -8.88348,1.85895 0,0 z M 398.7277,733.99869 c -15.40071,-1.358 -3.22677,1.38822 0,0 z m 24.18897,-0.63024 c -14.72896,-3.32861 -13.00724,1.32073 0,0 z m 327.52525,-0.54599 c -11.23944,-6.34413 -10.75862,3.77484 0,0 z m -558.84064,-1.09525 c 41.02008,-9.62107 83.77725,-6.63166 124.28802,-19.20977 62.62846,-12.19493 125.0587,-26.98337 184.86965,-49.36333 -44.01156,11.44709 -87.61734,25.12633 -132.38399,33.28268 19.27157,-3.3961 39.54933,-15.1281 8.55911,-8.21266 -36.11307,8.38671 -72.71336,14.73858 -108.5623,24.20946 12.92127,-1.53125 63.78147,-12.57617 53.62823,-7.11375 -24.56608,9.37988 35.36963,-5.41975 45.45139,-6.88497 16.25173,-3.84515 63.38343,-13.96442 23.64444,-3.80183 -59.43481,15.90682 -120.79303,21.87021 -181.2276,32.65556 -11.41515,-4.30145 34.25418,-7.9785 43.99833,-10.66753 32.15859,-8.25314 -26.80528,4.30347 -35.8475,5.01353 -11.4899,1.65722 -51.62433,8.22563 -26.41778,10.09261 z M 413.8125,688.04538 c 5.59053,-0.8633 -1.71937,1.71436 0,0 z m 4,-1 c 5.59053,-0.8633 -1.71937,1.71436 0,0 z M 389.75,732.01224 c -12.20409,-1.459 -2.40748,1.47564 0,0 z M 438,731.65191 c 37.85925,-1.61675 76.2956,-3.16034 114.57946,-4.09024 14.9575,-3.50913 64.25948,6.5599 60.71462,-4.5051 -33.62292,1.7054 -71.15432,-3.5994 -102.29408,0.79437 -22.9418,1.81204 -51.58413,2.82122 -71.08551,5.32939 -13.46697,0.52096 -44.99377,0.96714 -11.20184,3.0124 -6.34751,-2.00479 15.82511,2.22613 9.28735,-0.54082 z m 85.7277,-8.64515 c 15.69162,-1.46627 2.93397,1.45439 0,0 z m 213.0223,9.0324 c -7.74545,-1.55624 -1.48708,1.6085 0,0 z m -493.48097,-0.96661 c -6.6643,-1.82411 -1.20257,1.81729 0,0 z m 159.99472,-0.048 c -11.21616,-1.58351 -2.05171,1.57001 0,0 z m 260.98625,0.0417 c -5.50683,-1.62308 -0.99942,1.75023 0,0 z m 66.25,-0.8885 c 6.72521,-0.52916 -19.43432,-7.13471 -14.25,-0.88743 5.505,0.26719 8.98231,3.23791 14.25,0.88743 z m -480.23097,-0.10516 c -6.6643,-1.82411 -1.20257,1.81729 0,0 z m 282.98097,-0.006 c -5.50683,-1.62308 -0.99942,1.75023 0,0 z m 146.88708,-1.50906 c -18.64486,-3.89028 10.73345,6.47862 0,0 z m 58.13195,1.5154 c -6.6643,-1.82411 -1.20257,1.81729 0,0 z M 241.25,729.06621 c -5.50683,-1.62308 -0.99942,1.75023 0,0 z m 15.5,-0.027 c -7.74545,-1.55624 -1.48708,1.6085 0,0 z m 312.05319,-0.0555 c -17.71548,-0.58796 -29.0174,0.69701 -3.3027,0.29916 l 4.27607,-0.0696 -0.97337,-0.22996 z M 284.5,722.17304 c 15.22159,-2.80958 59.43417,-13.10041 54.60538,-10.01993 -26.20553,5.43467 -77.14427,11.09453 -88.98468,15.3635 11.46068,-1.77531 22.92001,-3.55935 34.3793,-5.34357 z m -21.23097,5.89951 c -6.6643,-1.82411 -1.20257,1.81729 0,0 z m 7,-1 c -6.6643,-1.82411 -1.20257,1.81729 0,0 z m 6,-1 c -6.6643,-1.82411 -1.20257,1.81729 0,0 z M 733,725.22849 c -4.09738,-5.38165 -2.34355,5.09406 0,0 z m -446.5,-0.5 c 5.66994,-3.19563 -18.82385,3.20022 0,0 z m 7.76903,-1.65594 c -6.6643,-1.82411 -1.20257,1.81729 0,0 z m 6,-1 c -6.6643,-1.82411 -1.20257,1.81729 0,0 z m 336.46565,-1.7454 c -12.67033,-4.53492 -33.67229,3.6124 -9.04631,1.21042 l 5.96581,-0.57173 z M 305.25,721.06621 c -5.50683,-1.62308 -0.99942,1.75023 0,0 z m 214.25,-0.38268 c 0.46673,-1.64795 -50.36919,-1.88122 -15.3354,0.78546 5.11879,-10e-4 10.25265,-0.1249 15.3354,-0.78546 z m -208.23097,-0.61098 c -6.6643,-1.82411 -1.20257,1.81729 0,0 z M 606,719.4778 c -25.71809,-4.65784 -58.43843,-4.99103 -87,-3.6627 -19.15905,4.26596 34.06824,3.85635 43.17541,3.45122 2.76524,-2.87048 62.12188,3.58681 43.82459,0.21148 z m 111.75,6.9e-4 c -11.94086,-7.60016 -4.53408,6.05541 0,0 z m -400.48097,-0.40594 c -6.6643,-1.82411 -1.20257,1.81729 0,0 z m 83.98097,-0.006 c -5.50683,-1.62308 -0.99942,1.75023 0,0 z m -79,-1 c -5.50683,-1.62308 -0.99942,1.75023 0,0 z m 44.47917,0.0581 c -3.68154,-1.13412 -1.83703,1.74158 0,0 z m 40.53986,-0.0518 c -6.6643,-1.82411 -1.20257,1.81729 0,0 z m 209.5074,-0.071 c -9.79565,-0.92382 -11.45615,1.10339 0,0 z m -383.85976,-1.91404 c -5.57752,-1.64291 -6.52758,3.28541 0,0 z m 94.33333,0.9784 c -5.50683,-1.62308 -0.99942,1.75023 0,0 z m 181.01903,0.006 c -6.6643,-1.82411 -1.20257,1.81729 0,0 z m 124.57137,0.163 c -30.76096,-5.56535 -64.03326,-9.40734 -94.50752,-5.17913 31.58206,0.0571 63.04796,3.6124 94.50752,5.17913 z m -299.57137,-1.163 c -6.6643,-1.82411 -1.20257,1.81729 0,0 z M 662,715.8115 c 3.46757,-1.72618 0.50555,-10.34198 -5.83868,-4.87499 1.90396,-3.45216 -22.282,-8.98976 -31.89185,-9.53388 -20.08456,-0.10248 -34.01504,0.28098 -5.84931,-1.01287 -11.76204,-4.71585 -58.55156,-5.89692 -60.4317,6.17093 23.45684,-0.56465 46.51861,-2.82863 55.98065,1.81817 9.32122,0.024 13.17558,2.51408 22.53089,4.34963 6.95934,1.91146 15.63291,3.69581 25.5,3.08301 z m -18.73625,-6.80059 c 10.9729,-1.41985 2.29851,1.47703 0,0 z m -8.45125,-0.96553 c 5.59053,-0.8633 -1.71937,1.71436 0,0 z M 637,707.07031 c -12.35836,-6.55181 19.17119,1.68303 0,0 z m -62.84835,-3.31499 c 18.21348,-4.87208 19.51234,3.56128 0,0 z M 679,715.86248 c -20.0293,-10.98472 -15.0871,-3.55063 0,0 z m -340.75,-0.79627 c -5.50683,-1.62308 -0.99942,1.75023 0,0 z m -62.91209,-6.86703 c 62.24314,-19.41343 126.66716,-30.88429 189.00071,-50.2264 23.88424,-5.76248 -53.84075,19.31603 -13.30837,8.2983 75.24628,-21.8197 149.69073,-46.82914 222.70961,-75.13607 -17.9952,5.4648 -32.59419,6.43202 -6.43205,-3.84399 9.71999,-7.35199 -31.81669,11.01833 -41.12111,13.19024 -12.11908,4.9098 -63.5906,21.88225 -26.3162,6.0347 35.51288,-17.0094 73.84175,-30.69387 104.77142,-55.47889 -13.35211,7.73716 -50.26495,26.35242 -20.68566,3.75278 -12.07718,-2.5829 -17.59741,6.44138 -2.86584,-7.82222 16.66714,-31.35473 -15.78885,15.08992 -27.81631,11.16187 -12.92916,2.07522 -24.68456,28.0387 -50.30365,35.23511 -22.79829,13.47341 -16.28007,5.7632 -22.80345,6.48205 -47.97656,26.64887 -103.64972,31.27597 -154.01222,51.79605 -14.54292,5.78007 -62.4457,20.7597 -63.15185,22.64036 14.81169,-3.55061 68.62338,-16.32562 27.20519,-3.15514 -14.47282,3.89354 -49.96145,13.64844 -16.80932,6.87937 27.24131,-4.7717 -24.61122,7.7467 -33.68324,9.4952 -31.00251,9.32185 -66.49728,9.68445 -94.7961,23.93309 -11.95952,8.85047 29.05288,-2.53962 30.41844,-3.23641 z m 67.91209,5.86703 c -5.50683,-1.62308 -0.99942,1.75023 0,0 z m -122,-1 c -5.50683,-1.62308 -0.99942,1.75023 0,0 z m 128.01903,0.006 c -6.6643,-1.82411 -1.20257,1.81729 0,0 z M 710,712.87563 c -19.10958,-1.1209 -41.27942,-6.68097 -57.8914,-9.30501 18.54688,7.4417 37.99058,11.18134 57.8914,9.30501 z m -477.5,-1.57701 c 9.02113,-4.75938 -20.03444,4.70837 0,0 z m 121.75,0.76759 c -5.50683,-1.62308 -0.99942,1.75023 0,0 z m 389.04226,-2.89473 c 37.11161,-1.51964 -23.34758,-13.58181 -25.51744,-12.04808 -37.48143,5.16609 33.50294,-17.89059 22.5695,-2.24765 -43.0258,-1.97839 21.0487,11.82521 32.03637,5.11221 14.43794,-0.91588 40.35705,-7.76766 21.96832,-8.84732 1.90255,-2.29376 -29.32058,-1.13111 -17.57329,-3.37775 1.34237,-1.3044 31.61639,0.052 25.46158,-1.90475 31.70295,-4.4279 -22.55619,-4.20488 -29.7373,-4.19343 -13.90851,1.71962 -57.27843,-1.2665 -27.7986,-2.79571 26.00023,1.26719 17.33104,-1.61795 45.31066,-2.66165 10.34271,-10.32986 -62.53468,-5.06821 -18.43472,-8.8758 9.87352,0.43318 47.72766,2.26872 26.09047,10.11331 17.89295,2.22295 5.66773,-11.78685 -2.30588,-10.52287 33.30775,-5.82673 -23.09483,2.13343 -11.86193,-2.23881 -10.94081,-2.10823 -63.62277,-1.7365 -50,3.44553 -23.16689,5.17034 48.37745,-6.07401 2.95469,3.52481 -16.07604,-2.68277 -34.47776,-5.07449 -54.78058,-1.902 16.94828,1.62395 2.83735,-12.04621 7.82589,-11.46206 -19.66723,-3.04832 9.19744,10.49402 -6.69098,7.58931 -0.90114,-14.0628 -43.05357,15.41184 -38.52695,0.84972 7.6877,-4.36068 48.73731,-6.10961 21.65891,-10 -10.94473,-5.67197 -41.87066,-0.11528 -32.075,2.2574 -7.34848,3.37681 -19.53807,11.99096 -29.42495,11.19075 -0.47135,-1.46595 10.7913,-4.74657 16.55897,-8.44815 13.56147,-5.12304 -3.03436,-4.44575 -9,-0.90123 -11.99432,2.31255 -23.86838,8.39522 -35.00793,8.89701 8.35346,-4.9567 1.14412,-5.31758 -8.35226,-3.64595 -6.19879,3.02264 -13.77435,2.90598 -21.21239,5.53273 -8.55112,5.80875 60.15009,2.1937 18.88352,10.56436 -29.29893,4.83062 16.25043,0.0688 36.20235,-1.00244 10.09667,2.52634 30.91372,-5.87333 34.39976,3.28547 15.71843,2.34896 71.07755,-5.10135 35.24175,1.72279 -24.52,2.06751 28.10086,4.75224 37.00195,-2.19912 -7.40274,5.50086 -20.00768,5.81637 -2.67242,9.43058 -19.90357,-1.04898 -37.10941,-3.66817 -55.2512,-5.29009 -29.04946,-2.92031 -59.56866,-1.12458 -87.6281,1.05466 -8.18937,2.35715 -22.76789,2.0774 -31.60503,3.54534 -9.87234,1.67733 -30.10534,0.86719 -1.5,3.82579 8.6472,-1.63943 33.3071,-3.39784 50.67883,-3.21372 18.75582,-3.31485 46.60326,0.51805 53.06561,0.70912 19.57939,-0.0229 27.38674,0.94098 39.25556,1.68336 -16.5161,-1.24898 -43.19137,5.02618 -13.94051,1.94847 16.21232,-1.23762 43.01534,-1.98176 12.67801,0.88907 -21.0308,4.44243 44.03758,11.20987 54.08883,12.54457 5.56897,-1.28436 11.28268,-1.62269 16.96593,-1.93778 z M 688.75,699.00509 c 14.42992,-1.41954 2.85946,1.43043 0,0 z m 15,0 c 14.42992,-1.41954 2.85946,1.43043 0,0 z m 46.53651,-9.01668 c 15.42397,-0.86599 13.74034,1.07797 0,0 z M 746.25,687.99345 c 12.65249,-0.88862 12.50378,1.0889 0,0 z M 690,682.75987 c 4.00798,-1.77513 3.90414,3.2606 0,0 z m 2.55887,-1.56318 c -4.374,-5.41248 8.9014,5.82822 0,0 z M 586,679.72849 c 8.11104,-3.44252 5.29288,2.19575 -0.68736,0.77243 z m 9.76166,-1.70726 c 8.76875,-1.45253 1.81369,1.54339 0,0 z m 106.40682,-0.18862 c 18.21492,-11.393 20.53247,-3.21783 0,0 z M 596.5,676.77403 c -24.02763,-2.28153 49.16219,-3.50655 37.60865,-2.55414 -12.29253,2.85612 -25.04076,4.1218 -37.60865,2.55414 z M 561,674.81285 c 10.59635,-5.4 2.99286,4.06786 0,0 z m 18.25,-0.77369 c 7.74545,-1.55624 1.48708,1.6085 0,0 z m -23.98097,-1.00366 c 6.59095,-1.4799 1.27974,1.65833 0,0 z m 31.48097,0.0307 c 5.50683,-1.62308 0.99942,1.75023 0,0 z m 75.28928,-0.88505 c 10.40728,-4.65723 2.95446,5.70651 0,0 z M 560.75,672.06621 c 5.50683,-1.62308 0.99942,1.75023 0,0 z m 10.0625,-0.0208 c 5.59053,-0.8633 -1.71937,1.71436 0,0 z m 22,0 c 5.59053,-0.8633 -1.71937,1.71436 0,0 z m 9,0 c 5.59053,-0.8633 -1.71937,1.71436 0,0 z m -36,-1 c 5.59053,-0.8633 -1.71937,1.71436 0,0 z m 9,0 c 5.59053,-0.8633 -1.71937,1.71436 0,0 z m 22,0 c 5.59053,-0.8633 -1.71937,1.71436 0,0 z m 150.45125,-0.0345 c 10.9729,-1.41985 2.29851,1.47703 0,0 z m -82.09351,-1.28242 c 8.79297,-5.0153 3.77873,2.89233 0,0 z m 7.57976,-1.66228 c 5.50683,-1.62308 0.99942,1.75023 0,0 z m 5.0625,-1.02083 c 5.59053,-0.8633 -1.71937,1.71436 0,0 z M 645.25,658.03916 c 7.74545,-1.55624 1.48708,1.6085 0,0 z m 13.5,0.027 c 5.50683,-1.62308 0.99942,1.75023 0,0 z m -3.9375,-1.02083 c 5.59053,-0.8633 -1.71937,1.71436 0,0 z m 115.96588,54.84124 c -5.84521,-9.82396 -21.54748,3.75222 -39.23916,0.32349 -10.43352,0.27791 38.71143,0.66008 39.23916,-0.32349 z M 347.25,711.06621 c -5.50683,-1.62308 -0.99942,1.75023 0,0 z m 12,0 c -5.50683,-1.62308 -0.99942,1.75023 0,0 z m 357.25,-0.33772 c -5.29629,-3.65344 1.12107,3.44639 0,0 z m -364.25,-0.66228 c -5.50683,-1.62308 -0.99942,1.75023 0,0 z m 15.25,-0.33772 c 7.28484,-2.79253 -16.38781,2.72831 0,0 z m -10.25,-0.66228 c -5.50683,-1.62308 -0.99942,1.75023 0,0 z m 355,0 c -5.50683,-1.62308 -0.99942,1.75023 0,0 z m -350,-1 c -5.50683,-1.62308 -0.99942,1.75023 0,0 z m 12,0 c -5.50683,-1.62308 -0.99942,1.75023 0,0 z m 100.66667,-0.97319 c -10.32322,-0.81634 -11.63819,2.95464 0,0 z M 367.25,707.06621 c -5.50683,-1.62308 -0.99942,1.75023 0,0 z m 17.25,-0.81492 c 13.14043,-5.21867 -23.08616,5.39361 0,0 z m 302.22917,0.87303 c -3.68154,-1.13412 -1.83703,1.74158 0,0 z M 192.25,706.06621 c -5.50683,-1.62308 -0.99942,1.75023 0,0 z m 179.47917,0.0581 c -3.68154,-1.13412 -1.83703,1.74158 0,0 z M 681.5,705.72849 c -10.73731,-2.92693 3.97066,2.98404 0,0 z m 104.76593,-2.92932 c 10.53432,-0.50801 57.7872,-10.54997 24.23407,-11.43329 28.67092,3.30902 -80.02515,18.72616 -24.23407,11.43329 z m -410.53676,2.32515 c -3.68154,-1.13412 -1.83703,1.74158 0,0 z M 178.5,703.13032 c 40.37103,-7.72571 -22.92657,-0.96382 -12.24959,1.22162 l 5.66235,-0.46405 z m 202.22917,0.994 c -3.68154,-1.13412 -1.83703,1.74158 0,0 z m 12.52083,-0.0581 c -5.50683,-1.62308 -0.99942,1.75023 0,0 z m 281.25,-0.33773 c -12.88592,-3.63167 3.23103,3.06397 0,0 z m -289.77083,-0.60417 c -3.68154,-1.13412 -1.83703,1.74158 0,0 z m 13.52083,-0.0581 c -5.50683,-1.62308 -0.99942,1.75023 0,0 z m -8.52083,-0.94189 c -3.68154,-1.13412 -1.83703,1.74158 0,0 z m 13,0 c -3.68154,-1.13412 -1.83703,1.74158 0,0 z M 667.25,702.06621 c -5.50683,-1.62308 -0.99942,1.75023 0,0 z m -273.52083,-0.94189 c -3.68154,-1.13412 -1.83703,1.74158 0,0 z m 13,0 c -3.68154,-1.13412 -1.83703,1.74158 0,0 z m 256,0 c -3.68154,-1.13412 -1.83703,1.74158 0,0 z m -265,-1 c -3.68154,-1.13412 -1.83703,1.74158 0,0 z m 13,0 c -3.68154,-1.13412 -1.83703,1.74158 0,0 z M 657.25,700.06621 c -5.50683,-1.62308 -0.99942,1.75023 0,0 z m -254.52083,-0.94189 c -3.68154,-1.13412 -1.83703,1.74158 0,0 z M 417.5,698.72849 c 3.16699,-3.3096 -12.23966,3.40437 0,0 z M 187,695.19065 c 16.66829,-6.45823 48.54886,-4.55658 54.5,-12.35507 -15.82186,1.9457 -54.8505,6.43015 -19.10283,-0.98837 14.25281,-1.31121 41.82207,-12.63321 31.10283,-6.23398 11.00292,-4.30582 44.4993,-13.09692 15,-6.98747 -29.62123,3.97436 -61.14126,10.88927 -91.66751,17.8802 9.6256,-1.04983 66.9145,-12.86736 51.12886,-7.12202 -18.39485,2.92523 -67.38246,20.13953 -69.96135,11.4343 7.5593,-4.06472 -21.62415,7.00525 2.07272,3.53843 21.04293,-2.29516 -9.89431,7.67022 14.92415,2.61054 l 5.89961,-0.85036 z m 2.25,-2.15149 c 7.74545,-1.55624 1.48708,1.6085 0,0 z m 217.47917,5.08516 c -3.68154,-1.13412 -1.83703,1.74158 0,0 z m 97.84394,-0.29125 c 20.23727,-7.85443 -36.47521,4.00516 0,0 z m -93.84394,-0.70875 c -3.68154,-1.13412 -1.83703,1.74158 0,0 z m 12,0 c -3.68154,-1.13412 -1.83703,1.74158 0,0 z M 518.25,697.00509 c -14.42992,-1.41954 -2.85946,1.43043 0,0 z m -103.52083,-0.88077 c -3.68154,-1.13412 -1.83703,1.74158 0,0 z m 12,0 c -3.68154,-1.13412 -1.83703,1.74158 0,0 z m -8,-1 c -3.68154,-1.13412 -1.83703,1.74158 0,0 z m 12,0 c -3.68154,-1.13412 -1.83703,1.74158 0,0 z m -7,-1 c -3.68154,-1.13412 -1.83703,1.74158 0,0 z M 445,692.22613 c 9.15349,-3.5626 -26.79109,5.90165 0,0 z m -17.27083,0.89819 c -3.68154,-1.13412 -1.83703,1.74158 0,0 z m -221.46014,-1.05177 c -6.6643,-1.82411 -1.20257,1.81729 0,0 z m 225.98097,-0.006 c -5.50683,-1.62308 -0.99942,1.75023 0,0 z m 50.75,-1.2751 c 19.23666,-5.74083 -21.8146,3.48866 -4.78458,1.12444 z m -270.73097,0.2811 c -6.6643,-1.82411 -1.20257,1.81729 0,0 z m 224.46014,0.0518 c -3.68154,-1.13412 -1.83703,1.74158 0,0 z M 694.5,690.72849 c -4.17789,-3.45953 -1.00177,3.52086 0,0 z M 184,688.29078 c 10.68176,-5.40466 -34.50417,7.05648 0,0 z m 257.25,1.77543 c -5.50683,-1.62308 -0.99942,1.75023 0,0 z m 12.47917,0.0581 c -3.68154,-1.13412 -1.83703,1.74158 0,0 z m 52.52083,-0.0581 c -5.50683,-1.62308 -0.99942,1.75023 0,0 z m -341,-1 c -5.50683,-1.62308 -0.99942,1.75023 0,0 z M 449,688.72849 c 5.67667,-2.82555 -14.52304,2.85445 0,0 z m 9.25,0.33772 c -5.50683,-1.62308 -0.99942,1.75023 0,0 z m 54,0 c -5.50683,-1.62308 -0.99942,1.75023 0,0 z M 173,687.72849 c 5.67667,-2.82555 -14.52304,2.85445 0,0 z m 289.72917,0.39583 c -3.68154,-1.13412 -1.83703,1.74158 0,0 z m 32.53986,-0.0518 c -6.6643,-1.82411 -1.20257,1.81729 0,0 z m 25.48097,-0.0334 c -7.74545,-1.55624 -1.48708,1.6085 0,0 z m -65.5,-0.97295 c -5.50683,-1.62308 -0.99942,1.75023 0,0 z m 30.95424,-4.3641 c 14.30237,-2.68938 27.79349,-8.43401 5.5069,-3.96989 -14.39629,2.24795 -51.02588,11.6394 -15.98202,4.60403 10.13229,-1.72492 -22.85403,7.4805 -2.56847,2.50551 l 5.91715,-1.39406 7.12644,-1.7458 z M 543,686.75948 c 12.56437,-3.46534 -22.12915,2.87512 -18.62878,0.71577 6.21637,0.0473 12.43642,-0.14204 18.62878,-0.71577 z m -351.27083,-0.63516 c -3.68154,-1.13412 -1.83703,1.74158 0,0 z m 628.03249,-0.0829 c -8.96109,-1.6727 -1.61654,1.65996 0,0 z m 8.65081,-0.9177 c -0.34236,-4.99879 -7.34992,-0.37515 -4.24426,0.53449 z M 270,682.71447 c 30.21345,-6.63961 -25.78708,3.53188 0,0 z m -103.50768,-1.11056 c -9.43983,-2.47544 -13.79824,5.61186 0,0 z M 295.5,682.72849 c -7.03222,-4.7962 -8.65861,5.48572 0,0 z m 337.5,0 c -16.06141,-3.53466 -4.20344,2.53324 0,0 z m -492.86329,-2.78776 c -6.19546,0.46536 0.36589,2.39429 0,0 z m 154.0097,-1.64688 c 75.83622,-14.48643 149.88055,-36.63574 222.55807,-62.44695 -13.10546,6.75275 -26.90016,12.97874 -3.97285,5.44774 13.57641,-5.49153 44.9741,-13.80107 48.5216,-20.14285 -12.52313,3.91975 -43.70078,14.76365 -15.5094,1.88383 12.04016,-5.32438 36.65428,-19.55968 26.0752,-20.99649 9.31018,-14.63119 -68.16488,27.0566 -23.56358,2.79485 15.03541,-5.29963 29.58679,-17.1518 4.75063,-7.11894 -88.83415,34.49499 -174.2204,80.05947 -267.84214,100.72319 -12.22846,4.36619 6.48995,0.49606 8.98247,-0.14438 z M 471.8125,625.04538 c 5.59053,-0.8633 -1.71937,1.71436 0,0 z M 484,620.72849 c 8.7769,-3.53961 -1.74222,3.40198 0,0 z m 5.11677,-1.4501 c 13.88341,-5.31037 57.54984,-25.03143 51.06242,-19.39944 -16.55415,7.29987 -33.52886,15.23323 -51.06242,19.39944 z M 564,587.33548 c 3.01346,-3.29904 3.04788,1.3575 0,0 z m -231.27083,92.78884 c -3.68154,-1.13412 -1.83703,1.74158 0,0 z m 9.52083,-2.05811 c -5.50683,-1.62308 -0.99942,1.75023 0,0 z m 446.5,-0.054 c -12.20409,-1.459 -2.40748,1.47564 0,0 z m -440.48097,-0.93969 c -6.6643,-1.82411 -1.20257,1.81729 0,0 z m 145.52597,-3.2969 c 30.69146,-9.22319 64.70863,-15.6922 87.205,-31.40613 -34.93698,11.13691 -69.63328,23.11435 -104.25367,35.19673 5.81206,-0.56402 11.36756,-2.55037 17.04867,-3.7906 z m -140.545,2.29056 c -5.50683,-1.62308 -0.99942,1.75023 0,0 z m 184.88685,-0.23198 c 10.0948,-7.92934 -18.56101,4.48883 0,0 z m 8.61315,-0.79507 c -7.74545,-1.55624 -1.48708,1.6085 0,0 z m 10.75,-13.37765 c 16.05379,-3.13462 29.71828,-11.7879 5.36656,-3.04111 -10.18451,2.96187 -31.42927,10.72891 -5.36656,3.04111 z m 163.24338,1.92036 c 11.37805,-10.27214 -17.39021,-1.98611 -17.38595,-4.41736 -27.5452,0.3819 3.76589,7.00471 13.20318,4.54916 l 4.18277,-0.13177 z M 592,662.72849 c -3.21583,-3.77926 -7.88495,2.60965 0,0 z m 150.91667,-0.63547 c -11.4181,-1.54475 -12.52055,3.58635 0,0 z m -597.19799,-3.49768 c 52.77236,-10.30509 -55.160744,5.23639 -10.62316,1.62466 l 5.06393,-0.74508 z M 799.5,660.22849 c 41.12646,-5.23133 -19.02235,-3.49641 -32.19526,-1.19452 -15.8884,-0.13673 -26.25742,3.66762 -3.70253,2.25659 11.96284,-0.44032 23.92622,-0.94123 35.89779,-1.06207 z M 61.642,659.66924 c -26.580299,-0.16522 20.451049,2.11015 0,0 z M 79,658.63122 c 11.577345,-0.80228 22.45569,-2.73721 34.88683,-3.36807 5.74859,-3.13742 19.52914,-3.60653 28.00739,-6.20577 6.64329,-1.77586 13.35538,-2.19532 18.63322,-5.19717 10.39984,0.25545 26.67905,-9.76007 -1.52744,-1.54497 -18.50533,3.37652 -31.47312,5.61594 -45.45388,7.98794 -9.10801,1.95131 -20.514239,2.29437 -29.243724,5.28325 C 75.495288,654.81701 66.067163,658.69651 79,658.63122 Z m 515,-0.98492 c -6.39981,-1.41307 -15.9822,5.02109 0,0 z m 146.5,1.08219 c -3.58829,-3.8072 -1.24187,3.94236 0,0 z M 62.25,658.06621 c -5.506826,-1.62308 -0.999422,1.75023 0,0 z m 5.47917,-0.94189 c -3.681542,-1.13412 -1.837033,1.74158 0,0 z M 351.5,655.26452 c 71.72575,-24.99303 141.27569,-56.23517 209.7733,-88.90774 25.9942,-20.47013 -30.99217,5.44538 -42.78608,9.56702 -15.49933,3.40973 35.02742,-17.05562 43.86394,-23.38482 17.69091,-6.29151 20.31497,-22.0399 -0.30745,-8.21951 -65.97662,32.16596 -131.24894,65.90773 -197.50877,97.40823 16.20614,-4.94844 54.27695,-23.61007 58.75331,-22.41985 -12.47648,7.76057 -44.86303,18.81097 -46.63132,22.85516 46.89682,-18.18623 -53.42864,25.55855 -19.96863,7.19563 -8.38332,-1.89522 -23.7263,12.575 -5.1883,5.90588 z m 91.23333,-45.66012 c 5.36885,-2.97937 -2.43669,3.07332 0,0 z M 734.25,657.06621 c -5.50683,-1.62308 -0.99942,1.75023 0,0 z m -153,-1 c -5.50683,-1.62308 -0.99942,1.75023 0,0 z m 51,0 c -5.50683,-1.62308 -0.99942,1.75023 0,0 z m 87.25,-0.83125 c -8.65365,-1.71132 -10.15287,2.42561 0,0 z m 38.375,0.47822 c 9.34884,-3.31606 12.73076,3.82427 9.05581,-4.12974 11.71653,-1.11646 44.15561,1.08607 13.34182,-3.95787 -17.30894,-2.72551 27.85156,0.79471 6.22923,-5.89406 -22.31674,0.007 -30.88519,-3.8757 -45.33197,-0.69226 -5.56743,1.55493 -12.01747,6.08537 -2.96578,4.1518 13.31941,3.56976 7.97351,-5.95719 25.26376,-1.27871 1.27387,1.61053 12.37477,5.076 -4.82365,7.45266 8.16857,-7.13697 -11.07556,2.22391 -17.20305,-2.28512 -8.86034,1.0396 -20.78591,-12.91819 -12.88215,-12.35139 5.67171,0.0235 12.34882,-1.94308 -5.05902,-1.49181 -2.06612,11.44435 -12.66501,-0.95698 -26.41406,6.37744 -15.03439,1.06616 -61.85053,-2.9444 -59.80535,3.13876 14.2399,1.6522 15.69025,-5.76875 25.21941,-0.0244 -11.90367,10.99719 21.73119,3.98987 0,2.23203 18.31813,-5.21818 28.70552,7.30536 44.97659,0.99404 19.23189,-7.49963 31.21578,13.30098 50.39841,7.75862 z m -1.0625,-2.6678 c 5.59053,-0.8633 -1.71937,1.71436 0,0 z m -5,-1 c 5.59053,-0.8633 -1.71937,1.71436 0,0 z m -164.08333,3.07894 c -3.68154,-1.13412 -1.83703,1.74158 0,0 z m 119.21868,-0.34243 c -3.4205,-5.90442 -15.09516,4.18339 0,0 z m -527.65287,-3.19683 c 24.3863,-6.87483 -35.47521,4.63444 -6.85415,1.76897 z M 620.5,653.70762 c -15.82928,0.28768 12.75029,1.82546 0,0 z m 57.25,0.30462 c -12.20409,-1.459 -2.40748,1.47564 0,0 z m -522.22632,-3.28753 c 38.42759,-9.94918 77.04733,-19.05705 114.97632,-30.28482 12.2044,-3.64789 56.08581,-28.76642 46.74129,-26.82465 -21.84601,10.73812 -63.57812,32.2472 -74.90851,32.78187 36.99916,-17.88211 76.18536,-34.13174 108.68103,-59.17698 -31.78166,14.24555 -66.90398,37.08005 -101.39557,51.61453 -34.72689,15.42263 -72.64691,22.34949 -108.29994,34.62218 4.7829,-0.59131 9.45863,-1.91006 14.20538,-2.73213 z M 596,652.72849 c -7.32841,-4.19286 2.47946,3.93854 0,0 z m -465.27083,-0.60417 c -3.68154,-1.13412 -1.83703,1.74158 0,0 z M 631,651.83548 c -5.06047,-3.19349 -11.79318,2.52182 0,0 z m 13.75,0.20368 c -7.74545,-1.55624 -1.48708,1.6085 0,0 z m 156.97625,-1.06067 c -6.47269,-14.27441 -1.60307,9.23622 0,0 z m -148.23333,-0.23855 c -0.74575,-2.33903 -4.2321,3.66689 0,0 z M 679,650.72849 c -2.30116,-3.46905 -3.64516,3.84819 0,0 z m -68.27083,-0.60417 c -3.68154,-1.13412 -1.83703,1.74158 0,0 z M 350.45,647.6161 c -1.51507,-2.79165 -9.78793,5.94843 0,0 z m 232.27917,1.50822 c -3.68154,-1.13412 -1.83703,1.74158 0,0 z m 33,0 c -3.68154,-1.13412 -1.83703,1.74158 0,0 z M 595,647.30101 c 14.2042,-4.66677 -21.91953,4.21949 0,0 z m 28.26903,0.77154 c -6.6643,-1.82411 -1.20257,1.81729 0,0 z M 614.25,647.06621 c -5.50683,-1.62308 -0.99942,1.75023 0,0 z m 7,-1 c -5.50683,-1.62308 -0.99942,1.75023 0,0 z m -481.52083,-0.94189 c -3.68154,-1.13412 -1.83703,1.74158 0,0 z m 490.53986,-0.0518 c -6.6643,-1.82411 -1.20257,1.81729 0,0 z m -485.53986,-0.94823 c -3.68154,-1.13412 -1.83703,1.74158 0,0 z m 4,-1 c -3.68154,-1.13412 -1.83703,1.74158 0,0 z M 606.5,642.72418 c 28.4446,-0.93973 3.32139,-4.69106 -11.84916,0.70825 3.95831,-0.12409 7.8789,-0.80226 11.84916,-0.70825 z m -453.77083,-0.59986 c -3.68154,-1.13412 -1.83703,1.74158 0,0 z m 4.52083,-1.05811 c -5.50683,-1.62308 -0.99942,1.75023 0,0 z m 6.75,-1.33772 c 6.22212,-2.89786 -13.23727,2.73975 0,0 z m 486,0.008 c 0.0169,-1.61919 -39.69746,1.75846 -10.43425,0.71372 l 3.87832,-0.19181 z m 69.72917,0.38827 c -3.68154,-1.13412 -1.83703,1.74158 0,0 z m -96.96751,-1.08291 c -8.96109,-1.6727 -1.61654,1.65996 0,0 z m 11,-1 c -8.96109,-1.6727 -1.61654,1.65996 0,0 z m 51.53405,-0.0545 c -29.33143,-0.70266 -12.11982,0.85974 0,0 z m 128.69421,-0.15081 c 4.31824,-7.12247 -15.92293,2.88121 -11.61884,0.57945 3.87738,0.0456 7.79385,0.19965 11.61884,-0.57945 z m -641.26075,-0.71178 c -3.68154,-1.13412 -1.83703,1.74158 0,0 z m 472.03249,-0.0829 c -8.96109,-1.6727 -1.61654,1.65996 0,0 z M 766,636.78246 c -0.31069,-2.30301 -21.64,-6.13069 0.5167,-7.21316 14.25619,-1.75765 26.32908,-1.19566 37.11702,-6.61646 -6.25164,-11.36792 -17.84213,-2.14378 -0.63493,-1.47435 -8.79445,-0.10566 -52.94986,0.67389 -30.99879,-3.75 3.688,-1.66039 26.03228,-5.66843 8.76543,-5.30391 4.39903,-7.56224 -39.81486,16.82656 -18.13353,2.57329 13.93769,-9.33924 27.45626,-8.55018 24.63997,-6.14437 30.88778,-11.39167 -39.9056,5.15739 1.22855,-5.74612 18.36747,-2.92606 -35.25773,3.3644 -33.3073,0.71859 15.38682,2.06491 28.18335,0.73887 5.1061,6.53507 20.71557,-5.54751 -18.53,-5.525 -7.81217,-0.7785 -24.83434,7.95358 -13.08734,-5.55579 -14.87539,-0.0952 14.46881,-0.42164 18.56474,-14.06878 -2.13453,-5.72189 -8.36075,4.08187 -17.73335,-6.22598 -12.97713,0.48209 -23.44949,3.01553 -41.11798,-2.15887 -59.64631,2.88294 -14.63368,5.88781 -49.18789,16.69124 -13.35369,12.59801 37.05137,-2.24914 -1.26279,5.76724 -16.34271,3.1265 -12.3835,1.22697 -21.76762,3.29123 -31.28505,4.30969 -8.3587,5.9351 23.31342,-0.45502 34.0314,0.20166 17.37405,0.21514 46.74101,-11.70542 58.42446,-0.036 -12.56337,-4.49345 -18.87886,2.25439 -23.59308,2.10977 20.60547,-2.67619 42.26736,8.25244 62.83119,0.39545 15.23337,0.7102 16.65974,2.03142 10.23437,6.71316 7.2021,1.31853 14.95853,1.3672 22.19942,0.23373 z m -70,-8.94556 c 6.63309,-5.37538 -5.24942,-6.2791 9.81363,-13.62812 -10.69213,1.66227 -51.40615,11.61994 -18.71411,0.53792 10.86937,-3.22617 27.93539,-12.18896 20.76197,-1.00541 13.20697,-12.73361 25.70378,-3.88836 11.74225,3.56052 -9.26209,-5.29056 -10.9072,5.64224 -4.4886,3.58587 -4.68731,3.94712 -14.21503,7.37095 -19.11514,6.94922 z m 10,-5.10841 c -6.80249,-3.90193 -5.86543,3.48199 0,0 z m 32.90943,3.1429 c 3.89373,-7.15598 29.90957,-4.29191 3.34736,1.8851 -0.14414,-4.88584 -11.49715,5.95045 -3.34736,-1.8851 z M 709.5,626.72849 c 4.17789,-3.45953 1.00177,3.52086 0,0 z m 7.97293,-1.0438 c 6.22136,-12.83308 68.94921,-17.74524 25.9208,-8.95698 -10.52416,1.06618 -32.31731,11.14908 -7.56005,7.32869 -5.22768,2.9837 -12.66083,3.37949 -18.36075,1.62829 z m 45.7961,-3.64919 c 6.59095,-1.4799 1.27974,1.65833 0,0 z m 8.48097,-7.96929 c 5.50683,-1.62308 0.99942,1.75023 0,0 z m 5.0625,-1.02083 c 5.59053,-0.8633 -1.71937,1.71436 0,0 z m -11,-2 c 5.59053,-0.8633 -1.71937,1.71436 0,0 z M 718,606.22849 c 14.26699,-5.2519 -8.34846,5.17681 0,0 z m -35.1875,-1.18311 c 5.59053,-0.8633 -1.71937,1.71436 0,0 z M 793,636.67969 c -9.47062,-7.18916 0.31221,3.79094 0,0 z m -614.5,-0.9512 c 4.51681,-2.96147 -11.42772,2.97291 0,0 z m 480.75,0.29427 c -9.97647,-1.50397 -1.95145,1.53162 0,0 z M 775,635.72849 c 3.09548,-3.56108 -9.71589,3.57582 0,0 z m 11.5,0 c -4.87467,-7.20629 -12.06058,4.73514 0,0 z m -99.21349,-0.73598 c -13.72499,-0.86605 -15.46149,1.04136 0,0 z M 211,626.72849 c 11.76115,-1.70106 24.83702,-9.85858 27.94598,-5.56704 39.0259,-18.28903 -18.39924,2.06775 -32.94598,5.6968 -17.90066,4.66753 -34.05675,10.9967 -6.21693,2.97027 l 5.43211,-1.49461 z m 495.5,7.08831 c -26.18401,-2.50071 22.71894,2.94958 0,0 z m 91.75,0.20596 c -9.97647,-1.50397 -1.95145,1.53162 0,0 z M 591,632.62383 c 16.6914,-3.85248 -21.93936,1.32524 0,0 z m 169,0.10466 c -3.64516,-3.84819 -2.30116,3.46906 0,0 z m -159.73097,-1.65594 c -6.6643,-1.82411 -1.20257,1.81729 0,0 z m 88.46014,-0.94823 c -3.68154,-1.13412 -1.83703,1.74158 0,0 z M 102,625.64866 c 9.4425,-0.98079 39.90276,-13.08661 8.49061,-4.85931 -9.8641,2.26512 -25.160298,5.48039 -8.49061,4.85931 z m 131,-1.92017 c 2.47946,-3.93854 -7.32841,4.19286 0,0 z m 391.02206,-3.88956 c 13.67678,-6.77988 7.42416,-4.32862 -7.83902,0.37319 -2.42455,-1.08205 11.70594,2.16797 7.83902,-0.37319 z m 157.70711,-0.71461 c -3.68154,-1.13412 -1.83703,1.74158 0,0 z m 6.53986,-1.05177 c -6.6643,-1.82411 -1.20257,1.81729 0,0 z M 645,612.32197 c 20.9398,-8.06259 -24.23637,7.3733 0,0 z m -495.5,-2.59348 c -5.29629,-3.65344 1.12107,3.44639 0,0 z m 653.5,-1.5846 c 6.47873,-5.52983 -17.82571,5.36949 0,0 z m -650.5,0.5846 c -1.20936,-3.65615 -2.46629,3.56228 0,0 z m 505.05887,-0.4682 c 5.58945,-5.79323 -11.46692,6.04746 0,0 z M 793.25,609.06621 c -5.50683,-1.62308 -0.99942,1.75023 0,0 z M 156.62106,598.94522 c 16.41009,-4.36828 28.30281,-12.6907 3.80435,-3.61284 -11.23519,3.23596 -44.06235,16.48126 -15.70234,7.67663 l 5.51876,-1.86018 z M 665,600.29588 c 9.92231,-8.40406 -12.71271,5.5982 0,0 z m 50.1009,-0.0622 c 9.754,-0.79629 37.24425,-2.34672 20.24174,-6.75978 -23.89344,-2.00283 18.35527,-0.39588 21.15254,-5.63894 24.86348,-3.38433 -33.10915,2.64866 -2.49518,-6.94967 6.80615,-0.49835 18.75467,-2.98087 25.5,-6.28336 -7.95147,-1.75609 34.25776,-0.7659 5.5,-2.91046 -12.86498,-3.67633 -18.68698,2.32 -29.70616,1.32408 12.09029,-7.31418 -33.56085,4.97099 -10.6178,6.4281 -25.9334,-0.27024 -28.47413,19.09923 -49.79334,16.0126 33.72164,-3.70096 -27.01083,6.24819 5.1173,5.56413 5.02537,-0.40081 10.06168,-0.65526 15.1009,-0.7867 z M 750.5,574.72849 c 3.58829,-3.8072 1.24187,3.94236 0,0 z m -68.86808,24.78654 c -12.44067,-2.10168 -13.33053,3.40208 0,0 z M 766,596.27832 c 14.05108,-3.98925 24.56661,-4.92203 38.3399,-11.60993 -18.03413,2.16456 -48.47646,10.92141 -57.83053,14.65373 6.5178,-0.87503 13.0067,-1.94978 19.49063,-3.0438 z m -75.5,-1.67413 c 23.25862,-2.87588 18.07762,-11.12126 1.22843,-6.26625 -5.23465,3.834 -23.71507,6.02055 -19.05857,9.20311 6.0652,0.10575 12.00086,-1.48518 17.83014,-2.93686 z m 105,-0.8757 c -4.17789,-3.45953 -1.00177,3.52086 0,0 z M 715,590.66947 c -12.47855,-4.91472 -0.51919,4.31399 0,0 z m -7.27083,0.45485 c -3.68154,-1.13412 -1.83703,1.74158 0,0 z m 57,-1 c -3.68154,-1.13412 -1.83703,1.74158 0,0 z M 776.5,587.61722 c -18.95296,2.43327 -6.0082,2.20893 0,0 z M 186,587.72849 c 3.69604,-3.75886 -7.95824,3.51331 0,0 z m 523.26903,-2.65594 c -6.6643,-1.82411 -1.20257,1.81729 0,0 z m 63.46014,0.0518 c -3.68154,-1.13412 -1.83703,1.74158 0,0 z M 720.5,583.25649 c 11.87753,-5.16308 -21.17334,5.44499 0,0 z m 47,-0.10137 c 12.33799,2.63687 27.58018,-5.25035 3.42709,-1.56416 -16.61634,-0.65203 -33.16451,5.2561 -3.42709,1.56416 z m 42.08322,-1.56269 c 26.79539,-11.68066 -29.50727,5.11273 0,0 z M 691.45,576.65697 c -9.45853,0.59927 -14.95902,8.47447 0,0 z m 42.28533,2.32537 c 8.34697,-5.98461 -18.96064,7.34354 0,0 z M 215,575.72849 c 3.69604,-3.75886 -7.95824,3.51331 0,0 z m 492,-1.60699 c -4.00798,-1.77513 -3.90414,3.2606 0,0 z m 77.72917,1.00282 c -3.68154,-1.13412 -1.83703,1.74158 0,0 z M 578,574.34512 c -3.89504,-2.82394 -3.71914,1.58041 0,0 z m 3.26797,-2.61663 c 3.38286,-6.65536 -6.19221,6.50567 0,0 z m -356.76797,0 c -2.89913,-4.1897 -6.13734,4.40193 0,0 z m 353,0 c -3.58829,-3.8072 -1.24187,3.94236 0,0 z m -341,-6.12292 c -8.43515,-2.04106 -9.84161,9.0844 0,0 z M 577,565.0251 c -6.49019,2.5873 -6.96916,7.62158 0,0 z m 8.39497,3.53345 c 6.29226,3.36119 41.40105,-18.93772 19.10503,-4.95683 13.52116,6.05271 25.0623,-36.44066 11.87187,-17.80548 -9.5555,4.93587 -17.75384,17.3112 -14.6192,4.56163 -5.32028,8.26884 -34.74605,12.98046 -16.3577,18.20068 z m 7.41753,-3.51317 c 5.59053,-0.8633 -1.71937,1.71436 0,0 z m 164.4375,4.02083 c -5.50683,-1.62308 -0.99942,1.75023 0,0 z m 31.23188,-0.3084 c -4.70801,-4.11627 -13.31694,4.03692 0,0 z m -57.75271,-0.63349 c -3.68154,-1.13412 -1.83703,1.74158 0,0 z M 735.5,567.72849 c -2.6969,-3.19215 -5.40103,1.24409 0,0 z m 29.25,0.31067 c -7.74545,-1.55624 -1.48708,1.6085 0,0 z M 718,566.22849 c 27.06682,-1.91516 8.68713,-8.13648 -5.69178,1.3824 z m 54.75,0.81067 c -7.74545,-1.55624 -1.48708,1.6085 0,0 z M 358,564.1215 c -5.51298,-1.73709 -3.76665,3.2354 0,0 z m 340.30952,-1.84539 c 22.78982,-20.511 -9.7624,3.3111 0,0 z m 6.1834,-2.53617 c -0.74575,-2.33903 -4.2321,3.66689 0,0 z m 18.06595,-2.5139 c -2.70872,0.85186 20.28577,-16.89873 1.18568,-4.62914 -11.60583,0.31693 -3.60745,9.63246 -1.18568,4.62914 z M 726,551.35093 c 3.23766,-4.63196 3.52199,-0.78294 0,0 z m 22.26797,5.37756 c 3.71267,-7.03296 -10.01516,7.11707 0,0 z M 373.7866,545.58507 c 30.80836,-19.70884 64.56357,-38.43142 94.97549,-56.30636 22.98531,-11.02017 1.23893,-3.26878 2.30056,-3.01056 14.99243,-9.75574 44.69033,-31.8655 13.32658,-11.31242 -42.40195,29.60302 -90.52532,50.71297 -131.2531,82.75804 7.21049,-3.46327 13.85421,-7.94499 20.65047,-12.1287 z m 316.80889,10.98891 c 4.19462,-8.79971 14.91011,-15.722 -2.55221,-0.90888 -2.47936,1.83162 2.28509,3.27684 2.55221,0.90888 z m 21.7266,-1.44851 c -6.41001,2.6316 -1.69777,0.34798 0,0 z m 25.30379,-3.1674 c -7.51459,1.0186 13.21597,-7.24805 15.01301,-7.24489 3.79028,8.68258 43.87842,-18.5794 21.86111,-7.48468 17.72168,-6.23657 -25.7358,-3.62661 -17.31815,8.02521 -5.07285,8.38825 5.16753,-16.65285 -9.92964,-3.70725 10.66629,-3.23107 6.21324,2.52226 -9.69642,4.27236 -7.00334,10.73544 -12.32507,14.80582 0.0701,6.13925 z M 765,538.72849 c 8.57996,-4.06862 13.69331,4.55707 0,0 z m -125.66398,17.25 c -1.1884,-6.75605 -4.90928,3.139 0,0 z m 116.16398,-0.25 c -2.19621,-3.62198 -5.19176,3.56164 0,0 z M 696,553.15812 c -5.23698,0.88857 -5.47159,4.80525 0,0 z m -119.5,-1.42963 c -2.65267,-3.8567 -4.98836,3.6301 0,0 z m 84.06291,-2.08606 c 25.0507,-8.28405 -0.73429,-13.09179 -3.27187,2.75062 z m 6.97806,-6.98024 c 6.28481,-3.26422 4.99489,2.54128 0,0 z m -80.25814,7.64062 c 19.79826,-5.74805 5.44593,-8.1893 -2.40578,1.42568 z m 135.13445,-5.95688 c 14.95978,-16.43205 -8.08118,-1.9692 -4.41728,-3.11744 13.75792,-14.44033 -21.67648,24.51988 4.41728,3.11744 z M 714,545.22849 c 9.45828,-9.03881 -7.11511,8.88408 0,0 z m -66.87244,3.75 c 3.08913,-4.50194 -5.58128,5.32311 0,0 z M 543.79017,542.5492 c 14.12936,-5.42398 -1.92571,-3.45776 17.89517,-12.13336 13.77096,-7.32888 52.29507,-24.36744 17.25007,-10.01826 -8.09681,3.25407 -78.11926,41.58361 -35.14524,22.15162 z M 704,546.66947 c -4.39574,-7.06497 -3.34179,8.42447 0,0 z m -94.99457,-1.44498 c 24.61789,-10.61731 -21.09835,4.03353 0,0 z m -22.73021,-0.43361 c -0.46366,-17.47716 -9.97304,8.70197 0,0 z M 647,546.28751 c -2.3337,-3.43479 -2.88022,1.90558 0,0 z m 58.26903,-3.21496 c -6.6643,-1.82411 -1.20257,1.81729 0,0 z m -113.42267,-1.9173 c 8.71945,-13.32134 -15.03674,7.06851 0,0 z M 735.25,537.87046 c 11.07848,-8.30313 -7.56833,3.64563 4.62481,-7.27718 -7.87271,-1.05058 -16.69223,20.06777 -4.62481,7.27718 z m -126.16064,1.98675 c 1.04186,-16.64241 -24.25047,4.1716 0,0 z M 614,538.22849 c 5.32075,-9.78911 -8.6169,8.98217 0,0 z m -54,-3 c 13.52413,-8.7662 -18.38653,8.98399 0,0 z m 187.28553,0.73561 c 19.75251,-1.59869 18.53018,-9.85798 -3.6713,0.57956 l 1.68215,0.64331 z m 42.60267,0.19529 c -3.06519,-10.50422 -10.57068,-1.27304 0,0 z M 716.5,534.72849 c -1.20936,-3.65615 -2.46629,3.56228 0,0 z M 660,526.16943 c -16.76735,-4.88176 -7.94829,20.26183 0,0 z m 20.11477,3.39787 c 6.25749,-10.992 -11.95012,14.99835 0,0 z m -83.67364,2.62939 c 1.673,-9.35655 -11.32302,2.95705 0,0 z m 132.90088,0.20714 c 1.01812,-4.96599 -6.97245,4.37402 0,0 z m 63.94754,-0.78579 c -9.50071,-4.0726 2.4057,4.66697 0,0 z m -209.91455,0.3127 c 0.43711,-8.20548 -7.08396,4.55293 0,0 z m 162.55471,-3.07469 c -2.23152,-2.2415 -4.87432,7.97288 0,0 z m -55.8698,-1.58683 c 9.83158,-5.87798 26.46584,-5.94564 4.38122,-7.07253 -6.433,-1.20535 -16.8943,20.06329 -4.38122,7.07253 z m 12.93095,-5.05174 c -16.31667,-4.94286 8.99293,0.81217 0,0 z M 577,527.22849 c 6.28319,-5.34412 -11.16189,5.60489 0,0 z m 26.4159,-1.14144 c 0.69516,-3.75205 -6.63773,5.50545 0,0 z m 141.2548,-2.0212 c -5.45994,-0.66352 1.34943,4.50547 0,0 z M 584,524.72849 c -3.13127,-2.99739 -5.20326,3.94241 0,0 z m 29.44113,-0.5318 c 3.35083,-5.68338 -9.25312,4.10917 0,0 z M 598.5,519.10916 c 14.26221,-7.8796 32.49468,-6.99512 30.85554,-5.07963 3.1512,-21.3551 -7.68027,-2.06563 -16.58818,-10.13251 -5.57241,7.78224 -44.24731,24.05701 -14.26736,15.21214 z m 8.3125,-9.06378 c 5.59053,-0.8633 -1.71937,1.71436 0,0 z M 623,520.72849 c -5.87342,-3.63113 -2.2674,2.60857 0,0 z M 513.46996,508.65853 c 13.97103,-16.3894 8.3081,-12.71181 6.89,-9.67848 -6.08836,-21.06692 -40.34305,-0.16279 -25.52628,-2.50156 -13.91772,10.95144 30.08387,-17.39985 15.06273,11.7152 l -2.48485,3.5348 z m 0.59772,-5.18004 c 1.40867,-7.88372 4.45946,10.62095 0,0 z m -1.8597,-6.19288 c -23.93515,-13.97358 9.99522,-0.0964 2.36324,-2.62559 -16.84286,-13.24712 4.0711,8.05765 -2.36324,2.62559 z m 58.52119,6.83871 c -3.68154,-1.13412 -1.83703,1.74158 0,0 z M 490,500.72849 c -4.16722,-10.86213 -0.67285,9.09574 0,0 z m 84.51555,0.5 c 1.38151,-9.8541 -13.37893,-7.40558 -17.67054,-10.74922 -6.35659,-3.91891 -13.02762,-10.8004 -6.675,0.17957 18.48213,6.89009 -23.11367,2.38216 -12.40803,9.20905 9.58295,-9.83709 11.88992,1.16926 21.4178,-0.0433 3.31069,1.6104 11.40529,6.04944 15.33577,1.40388 z m 2.16756,-2.6875 c -1.71452,-1.71931 0.86336,5.59056 0,0 z m -87.33497,-4.03579 c -1.84522,-13.33916 -6.99994,11.20172 0,0 z m 106.67192,-0.25254 c -6.60445,-5.89432 3.6221,6.76195 0,0 z m 6.90957,-1.39269 c -0.22836,-11.22956 -10.36186,5.82339 0,0 z M 600,491.72849 c 2.55494,-3.58745 2.55494,3.58745 0,0 z m 66.36163,1.5 c -6.46261,-5.11486 0.34459,4.92322 0,0 z M 552,492.83303 c -19.39983,-6.68007 1.16743,4.58226 0,0 z m 120.46601,-5.77914 c -4.87265,-2.66832 2.14803,10.65006 0,0 z m -95.94566,2.90929 c 11.19172,-11.58095 2.81155,4.17874 -3.30602,0.72661 z m -25.23024,-3.23607 c -0.80217,-5.40928 -2.0257,6.65374 0,0 z m 65.51276,-1.69967 c -3.10054,-8.87834 -6.50725,7.78111 0,0 z M 614,484.72849 c 2.55494,-3.58745 2.55494,3.58745 0,0 z m -107,0 c -3.90318,-3.65313 -3.90318,3.65313 0,0 z m -6.27083,-1.60417 c -3.68154,-1.13412 -1.83703,1.74158 0,0 z m 190.95999,-8.77648 c 23.30051,-14.02656 -26.87677,6.36989 -9.05847,4.88694 -13.45768,6.59857 5.24763,0.31919 9.05847,-4.88694 z m -189.02249,6.83762 c -7.83802,-7.08859 -0.51327,6.3853 0,0 z m 14.71697,-2.45985 c 12.21504,-16.97316 -15.74898,14.30465 0,0 z m 103.38374,0.002 c -4.95364,-5.53347 2.01321,7.88367 0,0 z m -123.71241,-6.88596 c -5.95101,-8.45191 -4.77354,10.48024 0,0 z m 150.52377,-0.22916 c -0.19442,-10.48268 -13.30298,4.87972 0,0 z M 532,463.45961 c 20.28202,-21.8016 39.72171,-43.83181 65.26144,-56.86435 13.90893,-2.58561 37.29203,-18.28839 9.3055,-11.36678 -26.1956,9.89482 -42.71288,24.99722 -62.50075,45.13256 -3.38018,6.11531 -35.42429,46.87047 -12.06619,23.09857 z m -25.87143,5.08832 c 2.01082,-14.99104 -7.58225,8.92689 0,0 z M 523,463.72849 c -3.90318,-3.65313 -3.90318,3.65313 0,0 z m 66.41201,-5.3687 c 6.00552,-2.44493 24.71675,-12.5649 21.46611,-15.7278 -5.27698,7.0757 -14.01722,-16.55353 -6.5805,-2.63605 4.34012,3.37892 14.13248,-20.55304 1.70238,-6.45628 -15.12583,-16.0813 -7.00703,19.07664 -15.73265,6.32267 -18.18761,10.68283 -1.05729,10.97262 2.13567,10.53933 -7.38054,-1.56474 -4.53163,11.48877 -2.99101,7.95813 z m 1.68838,-4.33583 c 5.67413,-6.30825 -3.38731,5.7829 0,0 z m 60.8632,3.1227 c 24.43605,-9.50444 -0.47283,-5.50036 -5.85623,1.49391 z m -132.06593,-1.85493 c -5.56226,-14.88608 -12.15128,-24.31303 -7.86649,-0.56324 1.43511,2.6429 6.07232,0.77972 7.86649,0.56324 z m -10.22642,-1.81325 c 3.52911,-16.53996 -1.49842,-7.21858 -2.39535,1.59635 l 1.90382,0.38659 z m 18.38259,-5.34527 c 13.71122,-9.73064 -24.34145,7.15612 0,0 z m 53.59859,-9.25642 c 14.49259,4.05244 26.07918,-31.32229 9.92134,-5.72487 -15.30391,-4.87305 -34.98802,31.75553 -13.56441,8.29513 z M 741.25,446.33643 c 6.18163,-8.78977 -8.47034,4.46541 0,0 z M 616,423.72848 c -8.7769,-3.5396 1.74222,3.40199 0,0 z m -11.87244,-4.75 c 3.08913,-4.50193 -5.58128,5.32312 0,0 z M 812.25,736.01224 c 7.71012,-10.45487 20.41728,5.57181 0,0 z m 6.75,-6.70042 c 3.54732,-5.32583 3.37589,4.45799 0,0 z M 158,716.51278 c -6.55178,-4.95898 11.11854,3.63306 0,0 z M 51.25,679.02276 c 8.780659,-6.12062 53.46165,-8.94094 64.44499,-6.92191 -20.929472,5.01802 -42.915035,7.83166 -64.44499,6.92191 z m 16,-1.95655 c -5.506826,-1.62308 -0.999422,1.75023 0,0 z m 80.5625,-7.02083 c 5.59053,-0.8633 -1.71937,1.71436 0,0 z M 40,651.75154 c 32.708855,-12.71033 71.05368,-12.90724 104.76816,-25.69802 15.06122,-4.33155 69.05212,-23.68816 29.90427,-5.56006 -40.72499,20.71368 -86.58667,28.08837 -131.612779,32.10943 z m 45.35898,-6.64447 c 19.18315,-5.0556 -31.840379,4.19034 0,0 z M 99.25,643.06621 c -5.506826,-1.62308 -0.999422,1.75023 0,0 z m -5.52083,-0.94189 c -3.681542,-1.13412 -1.837033,1.74158 0,0 z m 4,-1 c -3.681542,-1.13412 -1.837033,1.74158 0,0 z m 17,-1 c -3.68154,-1.13412 -1.83703,1.74158 0,0 z m -7,-1 c -3.68154,-1.13412 -1.83703,1.74158 0,0 z m 18,-4 c -3.68154,-1.13412 -1.83703,1.74158 0,0 z m 14.88056,-2.52277 c 12.86649,-7.59958 -31.70393,8.78757 0,0 z m -96.466493,12.2849 c 23.221894,-10.66057 56.506633,-11.87316 83.053603,-20.85176 12.59906,-4.2426 55.59588,-17.88496 19.27364,-3.75593 -32.22909,14.63326 -67.263165,22.11138 -102.327243,24.60769 z M 356.21038,604.18478 c 11.41167,-5.26399 55.91256,-29.87765 50.08981,-23.44807 -15.86136,9.24857 -32.56128,17.97872 -50.08981,23.44807 z m 466.21561,-32.78857 c 23.18504,-30.14426 -33.65797,-11.75961 -50.09909,-12.50465 23.59415,-10.10186 59.80009,-15.30381 88.3694,-9.96893 42.35402,6.14343 -23.20277,4.07839 -16.6963,8.8908 27.43824,1.14633 -14.2294,3.77548 -7.93728,10.68389 -3.61013,1.61862 -9.97069,6.12905 -13.63673,2.89889 z M 454.73333,566.6044 c 5.36885,-2.97937 -2.43669,3.07332 0,0 z m 9,-5 c 5.36885,-2.97937 -2.43669,3.07332 0,0 z m -21.50714,-4.45463 c 7.07379,-5.01278 -4.42391,4.77031 0,0 z M 317,544.69711 c 18.53449,-13.98803 20.55436,-4.85067 0,0 z m 434.52565,-78.92712 c 2.27484,-5.26082 4.12243,1.71059 0,0 z m -6.27612,-6.2915 c 10.18445,-8.23596 -1.18543,5.29884 0,0 z M 754.5,455.72848 c 2.4663,-3.56228 1.20935,3.65617 0,0 z m -242.80911,-31.75 c -13.58897,-16.85609 22.52372,-38.05698 20.50758,-12.25 -15.69985,-27.36304 -16.17902,5.56543 -20.50758,12.25 z m 171.48124,-5.10071 c -5.35356,-16.28905 11.01826,5.34247 0,0 z m 10.0694,-7.36062 c 10.42023,-13.80674 -0.16759,7.76168 0,0 z"
     id="path817"
     inkscape:connector-curvature="0" />
</svg>
