<?xml version="1.0" encoding="UTF-8" standalone="no"?>
<!-- Created with Inkscape (http://www.inkscape.org/) -->

<svg
   xmlns:dc="http://purl.org/dc/elements/1.1/"
   xmlns:cc="http://creativecommons.org/ns#"
   xmlns:rdf="http://www.w3.org/1999/02/22-rdf-syntax-ns#"
   xmlns:svg="http://www.w3.org/2000/svg"
   xmlns="http://www.w3.org/2000/svg"
   xmlns:sodipodi="http://sodipodi.sourceforge.net/DTD/sodipodi-0.dtd"
   xmlns:inkscape="http://www.inkscape.org/namespaces/inkscape"
   version="1.1"
   id="svg2"
   width="582.66669"
   height="582.66669"
   viewBox="0 0 582.66669 582.66669"
   sodipodi:docname="twitter.svg"
   inkscape:version="0.92.3 (2405546, 2018-03-11)">
  <metadata
     id="metadata8">
    <rdf:RDF>
      <cc:Work
         rdf:about="">
        <dc:format>image/svg+xml</dc:format>
        <dc:type
           rdf:resource="http://purl.org/dc/dcmitype/StillImage" />
        <dc:title></dc:title>
      </cc:Work>
    </rdf:RDF>
  </metadata>
  <defs
     id="defs6" />
  <sodipodi:namedview
     pagecolor="#ffffff"
     bordercolor="#666666"
     borderopacity="1"
     objecttolerance="10"
     gridtolerance="10"
     guidetolerance="10"
     inkscape:pageopacity="0"
     inkscape:pageshadow="2"
     inkscape:window-width="3840"
     inkscape:window-height="2107"
     id="namedview4"
     showgrid="false"
     inkscape:zoom="2.2912201"
     inkscape:cx="269.84829"
     inkscape:cy="304.15048"
     inkscape:window-x="0"
     inkscape:window-y="0"
     inkscape:window-maximized="1"
     inkscape:current-layer="svg2" />
  <path
     style="fill:#101010;fill-opacity:1;stroke-width:1.33333337"
     d="M 170.61261,509.2283 C 129.736,506.84466 87.665597,495.63614 50.003718,477.09534 35.236465,469.82547 20.000669,461.17347 19.998775,460.05631 c -6.73e-4,-0.39762 9.565685,-0.52085 21.258573,-0.27382 39.691845,0.83854 72.061962,-6.39571 107.086352,-23.93225 13.34529,-6.68192 32.98964,-19.27829 32.98964,-21.15365 -12.45349,-0.32707 -25.64963,-4.86839 -36.35139,-8.85765 -25.77665,-9.77318 -50.470612,-33.92017 -61.494205,-60.13209 -1.918258,-4.56122 -3.487742,-8.46122 -3.487742,-8.66666 -0.556945,0.66875 29.763397,0.3553 44.956987,-3.6663 -1.30699,-0.0223 -7.13212,-1.87457 -12.94474,-4.11614 C 84.683271,318.71857 59.186962,293.51121 48.643241,266.6069 43.279984,252.92153 38.340208,224.00001 41.366012,224.00001 c 17.924556,6.93737 31.078281,11.44753 48.631021,13.67485 l -7.759972,-6.32122 C 65.425864,217.65933 50.120119,193.31157 44.506471,171.33334 40.894055,157.19022 41.183799,131.88558 45.117151,118 48.381687,106.47549 55.882318,89.02233 57.310505,89.62739 c 0.483736,0.20494 5.510335,5.59904 11.170219,11.9869 25.297448,28.55122 62.118316,55.78653 98.852616,73.11836 34.9368,16.48376 69.1235,25.61786 111.84224,29.88238 l 7.84224,0.78287 -0.87153,-5.45023 c -3.22057,-20.14037 -1.91611,-36.56873 4.39495,-55.34948 11.18777,-33.29316 39.87779,-60.81235 74.17243,-71.14551 36.17615,-10.90005 76.63177,-2.07871 106.4397,23.20917 l 8.52465,7.23198 c 25.95455,-4.414867 47.38296,-15.348764 69.65534,-25.28868 -6.55975,24.59331 -28.06011,46.80727 -42.00001,58.67387 27.55335,-5.33444 36.99177,-8.19025 57.37033,-15.68647 -17.17619,24.96119 -33.59073,40.31015 -55.34539,57.74079 l -0.012,17.59837 C 509.31214,244.47542 495.47202,298.15229 471.7693,342.66668 411.98303,454.94699 300.17744,516.78365 170.61261,509.2283 Z"
     id="path817"
     inkscape:connector-curvature="0"
     sodipodi:nodetypes="sscssccccccsccssscssscssssccccccss" />
</svg>
