<?xml version="1.0" encoding="UTF-8" standalone="no"?>
<!-- Created with Inkscape (http://www.inkscape.org/) -->

<svg
   xmlns:dc="http://purl.org/dc/elements/1.1/"
   xmlns:cc="http://creativecommons.org/ns#"
   xmlns:rdf="http://www.w3.org/1999/02/22-rdf-syntax-ns#"
   xmlns:svg="http://www.w3.org/2000/svg"
   xmlns="http://www.w3.org/2000/svg"
   xmlns:sodipodi="http://sodipodi.sourceforge.net/DTD/sodipodi-0.dtd"
   xmlns:inkscape="http://www.inkscape.org/namespaces/inkscape"
   version="1.1"
   id="svg2"
   width="400"
   height="400"
   viewBox="0 0 400 400"
   sodipodi:docname="weblog.svg"
   inkscape:version="0.92.3 (2405546, 2018-03-11)">
  <metadata
     id="metadata8">
    <rdf:RDF>
      <cc:Work
         rdf:about="">
        <dc:format>image/svg+xml</dc:format>
        <dc:type
           rdf:resource="http://purl.org/dc/dcmitype/StillImage" />
        <dc:title></dc:title>
      </cc:Work>
    </rdf:RDF>
  </metadata>
  <defs
     id="defs6" />
  <sodipodi:namedview
     pagecolor="#ffffff"
     bordercolor="#666666"
     borderopacity="1"
     objecttolerance="10"
     gridtolerance="10"
     guidetolerance="10"
     inkscape:pageopacity="0"
     inkscape:pageshadow="2"
     inkscape:window-width="3840"
     inkscape:window-height="2107"
     id="namedview4"
     showgrid="false"
     inkscape:zoom="3.337544"
     inkscape:cx="228.52827"
     inkscape:cy="157.97335"
     inkscape:window-x="0"
     inkscape:window-y="0"
     inkscape:window-maximized="1"
     inkscape:current-layer="svg2" />
  <path
     style="fill:#101010;stroke-width:1.33333337;fill-opacity:1"
     d="m 0,397.62539 c 16.097282,-5.45944 37.409073,-1.38522 54.993775,-7.37466 10.648814,-6.42819 22.859823,0.19511 5.004214,3.87018 -18.856459,7.14432 -39.776365,6.56819 -59.46432989,4.8402 z m 147,-0.33627 c -9.61955,-8.59819 25.28452,-5.34635 13.54607,-19.95064 -11.7479,-5.80471 -39.72453,-14.56041 -17.59457,-26.42904 26.39093,-5.30802 -9.70123,-15.18282 -19.62527,-16.28463 -12.71516,0.49339 -16.70074,-6.81096 -1.50103,-5.91503 24.92655,-6.14753 -18.98075,-10.77073 -26.592584,-14.36768 7.823084,-5.56369 20.718024,-7.09995 21.726134,-19.84466 35.95209,-47.14683 71.17049,-94.9522 108.5716,-140.93438 9.22277,-9.84785 17.63092,-20.41149 26.30822,-30.7338 -9.95497,-16.23085 -16.60343,-39.055801 -1.1083,-54.309152 9.86471,-18.870986 31.54492,-22.908345 43.67421,-38.38619 C 305.08274,22.662467 307.33931,0.41484333 320.99004,0.01579102 347.32669,0.01100372 373.66335,0.00562168 400,0 c -0.003,34.88889 -0.005,69.77778 -0.008,104.66667 -7.45551,8.91388 -18.90568,16.53859 -17.91941,29.51858 -12.11795,28.409 23.29576,-23.79845 17.72523,6.33956 0.3482,13.6204 0.1492,27.24669 0.20218,40.87 -14.44773,-4.94528 -25.04642,-24.02506 -25.82537,-32.32572 -11.82335,12.21795 -22.82869,30.94588 -42.74358,27.1231 -10.20487,3.1003 -21.84029,-12.57272 -29.11936,-4.06076 -9.18891,11.65982 -18.43291,23.69128 -27.64502,34.37198 -10.4856,9.44868 -26.47212,9.03399 -39.57053,18.65362 -27.40105,15.13864 -52.7093,33.96923 -80.59715,48.14944 -17.79646,-0.94107 -21.96561,20.17252 -5.78328,28.26973 4.23535,4.48941 22.69714,26.86968 18.54533,23.27483 -10.99308,-12.19005 -22.66005,-23.89992 -32.38691,-37.14819 -11.89391,3.36349 -5.36732,17.21979 -10.20746,18.23031 -11.29097,2.56796 -13.92089,11.4272 -0.97689,10.79741 16.47464,-0.87512 17.86091,12.49882 12.75398,16.66657 15.31365,0.8787 35.33409,10.1845 24.60152,22.68403 17.90225,9.85798 35.09193,7.22521 55.35697,3.76402 18.78179,-0.43302 41.26089,-5.45528 56.75724,7.97014 0.55498,20.66692 -30.76446,17.05623 -45.77372,17.11006 -17.71374,1.90134 -41.1209,-10.5786 -55.38577,-2.04979 -0.70734,11.81225 -15.12522,16.64053 -25,14.41353 z M 252.15217,379.8428 c 19.50071,-1.94921 11.48463,-20.97049 -5.20843,-17.15878 -22.45248,0.84415 -45.6757,1.40427 -67.18627,8.2997 0.21883,11.78886 30.00674,6.0554 41.62731,9.91204 10.23616,0.50392 20.62446,0.58553 30.76739,-1.05296 z m -82.86645,-11.31923 c -0.27041,-7.63285 -16.40212,7.29162 -2.16914,1.55301 z m -18.61905,-6.6163 c -5.85226,-7.06049 -10.04028,7.94237 0,0 z M 230,217.37329 c 22.40778,2.49644 31.97016,-19.51766 42.44855,-34.86183 8.92772,-16.74068 26.35389,-31.67657 28.51421,-50.30965 -20.50807,-15.51022 -32.68903,17.89339 -44.63818,29.75071 -3.31997,9.74614 -21.20936,27.73622 -5.67738,8.71631 -0.1205,-4.96276 -12.31189,17.77395 -11.69392,15.53656 -10.69445,10.75521 -27.51443,34.04878 -33.40082,37.78381 7.93481,-2.93062 16.06165,-5.37684 24.44754,-6.61591 z m 68.66667,-169.2946 c -4.41161,-8.017485 -7.49672,5.159795 0,0 z M 308,45.33333 c -4.94162,-4.646573 -3.59536,2.707077 0,0 z M 37.680408,385.67727 c -9.936164,-8.72914 -44.1026057,3.90018 -35.9757088,-17.33873 11.1843488,0.47074 41.3688458,14.63774 35.2553178,-7.41321 14.425817,0.05 14.644895,11.35489 8.378107,20.41695 4.416495,5.58896 -4.400065,9.23629 -7.657716,4.33499 z M 2.3333333,349.74756 c -3.5064791,-6.24148 -5.8949778,-22.99679 6.2912916,-16.92265 20.6289531,-1.76324 -1.0172031,-14.27815 -8.54333993,-13.38906 0.464897,-13.59431 26.51695803,-7.9138 36.07899003,-14.67013 12.810303,2.40658 39.05579,-1.41661 44.414479,6.80056 -12.138129,6.12046 -32.049427,-9.14348 -39.952598,0.50425 4.493805,6.56252 -6.76686,-8.08963 -13.076732,-0.23421 -14.420354,1.75541 -12.228013,7.92136 -1.346801,13.09889 5.275577,8.02181 -10.247374,11.10065 1.852573,16.14933 4.851954,12.53327 -19.3870297,9.13634 -25.7178627,8.66302 z M 295.96157,339.56672 c -18.39235,-15.84198 -34.63462,-34.69647 -54.90367,-48.06164 -13.18265,-0.0856 -28.81138,3.12883 -43.77341,0.38153 8.3503,-14.15386 31.28807,-3.72768 39.16392,-6.37983 -6.09689,-7.35393 -18.86415,-14.95848 -21.57452,-21.74015 29.88633,23.31387 56.44164,50.57218 84.07419,76.51617 7.72394,6.85367 -0.31341,2.59117 -2.98651,-0.71608 z m 85.36495,-20.36432 c -15.18133,-12.26683 -31.56127,-23.1874 -45.90741,-36.39928 21.84974,13.83324 41.53584,31.29469 62.36729,46.77236 6.7057,8.03956 -14.80612,-9.30233 -16.45988,-10.37308 z M 48,325.33333 c -3.269324,-9.4637 6.339373,9.56826 0,0 z M 1.6666667,301.80829 c -4.686998,-10.09881 0.4512584,-15.24822 5.073396,-3.785 6.4131903,2.91243 -2.5849404,5.57114 -5.073396,3.785 z m 28.5895293,-4.14162 c -11.16918,-16.84525 6.912577,5.04717 2.409917,3.53125 z m -8.241152,-13.16416 c -5.717035,-10.01424 9.539285,11.75438 0,0 z m 45.131885,-7.80428 c -18.982738,2.31089 -31.810419,-18.74066 -5.767188,-17.18055 2.40143,-5.5671 -25.519892,-6.41325 -8.636527,-7.53591 9.515029,0.70027 18.074653,-4.62769 3.592751,-7.27396 -9.575929,-0.91943 -39.824235,-9.11424 -14.675505,-5.13471 17.322074,3.67907 -10.87945,-8.46154 4.026901,-10.33229 11.148003,-12.31192 5.422699,15.93801 20.389767,16.09252 13.88582,1.07045 3.051184,6.33901 3.79194,10.06914 7.902605,3.54673 -0.55467,11.03456 12.376371,9.9856 11.816594,-1.00065 26.319141,8.9568 9.094766,13.12829 -8.096443,0.22769 -16.207669,-0.51309 -24.193276,-1.81813 z m 25.836603,-1.31378 c -12.608588,-0.68441 -31.606174,-9.71675 -40.378731,-6.39091 11.968821,5.75011 27.261031,9.21387 40.378731,6.39091 z m -1.583505,-4.60988 c -6.604776,-5.54148 -37.560332,-4.63486 -13.847714,-0.78704 3.68999,-0.3443 11.624554,3.92421 13.847714,0.78704 z m -55.13336,-59.04124 c -5.04026,-16.00393 17.240808,6.93766 0,0 z M 22,197.33333 c -19.9250704,-2.09782 4.055935,-8.40785 5.194735,1.12685 C 25.44342,198.81951 23.318807,198.72666 22,197.33333 Z"
     id="path817"
     inkscape:connector-curvature="0" />
</svg>
